<?xml version="1.0" encoding="UTF-8"?>
<svg width="18px" height="21px" viewBox="0 0 18 21" version="1.1" xmlns="http://www.w3.org/2000/svg" xmlns:xlink="http://www.w3.org/1999/xlink">
    <!-- Generator: Sketch 60.1 (88133) - https://sketch.com -->
    <title>attach</title>
    <desc>Created with Sketch.</desc>
    <g id="Page-1" stroke="none" strokeWidth="1" fill="none" fillRule="evenodd">
        <g id="DesktopProfileV3Popup" transform="translate(-451.000000, -531.000000)" fill="#737373" fillRule="nonzero">
            <g id="popup">
                <g id="Group-25" transform="translate(241.000000, 96.000000)">
                    <g id="Group-24" transform="translate(34.000000, 119.000000)">
                        <g id="Group-10-Copy-3" transform="translate(0.000000, 267.000000)">
                            <g id="Group-11" transform="translate(172.000000, 49.000000)">
                                <g id="Group-22" transform="translate(4.000000, 0.000000)">
                                    <g id="attach" transform="translate(9.000000, 10.500000) scale(1, -1) translate(-9.000000, -10.500000) ">
                                        <path d="M15.260615,10.9111416 L8.61508049,4.21619012 C7.39031972,2.99150575 5.41330645,2.99520198 4.19313172,4.22450665 C2.97295695,5.45381129 2.96928817,7.44561747 4.18487695,8.67954241 L10.8301058,15.376496 C11.1019011,15.6504791 11.5427661,15.6504791 11.8147143,15.376496 C12.0865097,15.1025129 12.0865097,14.6585032 11.8147143,14.3845201 L5.1694855,7.68756657 C4.48984421,7.00283989 4.48984421,5.89289267 5.1694855,5.20816596 C5.84912683,4.52343928 6.9508306,4.52343928 7.63047189,5.20816596 L14.277688,11.9031174 L15.7545244,13.3908502 C16.9780622,14.6240051 16.9776036,16.6228957 15.7537601,17.8554346 C14.5297637,19.0879734 12.5458714,19.0876654 11.3223336,17.8545105 L10.0919169,16.6144252 L3.20042125,9.67136425 L2.70804054,9.17545333 C0.987077441,7.38740186 1.00893726,4.53884024 2.7569576,2.77758642 C4.50513079,1.0164866 7.33253648,0.994463222 9.1073083,2.72830335 L16.4910318,10.1674292 C16.6669803,10.3445402 16.9233362,10.4136905 17.1634884,10.3488525 C17.4037934,10.2840145 17.5915126,10.0950447 17.6558691,9.85294158 C17.7202256,9.61083849 17.651436,9.35271839 17.4756403,9.17545333 L10.0919169,1.73648151 C7.77951605,-0.582595113 4.04026593,-0.578282844 1.7332154,1.74618408 C-0.573987985,4.07049705 -0.578268267,7.83772594 1.72358484,10.1674292 L9.1073083,17.606401 L10.3395595,18.8464864 C12.1166243,20.5661576 14.9328708,20.5375118 16.6749293,18.7818023 C18.4171408,17.0262469 18.4448095,14.1889279 16.7374514,12.3990283 L15.260615,10.9111416 Z" id="Path"></path>
                                    </g>
                                </g>
                            </g>
                        </g>
                    </g>
                </g>
            </g>
        </g>
    </g>
</svg>
