<svg width="14px" height="14px" viewBox="0 0 14 14" version="1.1" xmlns="http://www.w3.org/2000/svg" xmlnsXlink="http://www.w3.org/1999/xlink">
    <title>
        close
    </title>
    <desc>
        Created with Sketch.
    </desc>
    <g id="Page-1" stroke="none" strokeWidth="1" fill="none" fillRule="evenodd">
        <g id="desktopdisbursmentDefaultExcutePayment" transform="translate(-796.000000, -545.000000)">
            <g id="Group-27" transform="translate(29.000000, 482.000000)">
                <g id="Group-9-Copy-7">
                    <g id="Group-10" transform="translate(0.698305, 0.000000)">
                        <g id="Group-9-Copy" transform="translate(0.301695, 45.000000)">
                            <g id="close" transform="translate(766.000000, 18.000000)">
                                <rect id="Rectangle-Copy-7" fill="#002A4C" x="0" y="0" width="14" height="14" rx="7"/>
                                <path d="M9.89026915,4.10971823 C9.74396135,3.96342726 9.50931677,3.96342726 9.36300897,4.10971823 L7,6.47245543 L4.63699103,4.10971823 C4.49068323,3.96342726 4.25603865,3.96342726 4.10973085,4.10971823 C3.96342305,4.2560092 3.96342305,4.4906268 4.10973085,4.63691777 L6.47273982,6.99965497 L4.10973085,9.36239218 C3.96342305,9.50868315 3.96342305,9.74330075 4.10973085,9.88959172 C4.18150449,9.9613571 4.27812284,10 4.37198068,10 C4.46583851,10 4.56245687,9.96411731 4.6342305,9.88959172 L6.99723948,7.52685451 L9.36024845,9.88959172 C9.43202208,9.9613571 9.52864044,10 9.62249827,10 C9.71911663,10 9.81297447,9.96411731 9.8847481,9.88959172 C10.0310559,9.74330075 10.0310559,9.50868315 9.8847481,9.36239218 L7.52726018,6.99965497 L9.89026915,4.63691777 C10.0365769,4.4906268 10.0365769,4.2560092 9.89026915,4.10971823 Z" id="Path" stroke="#FFFFFF" strokeWidth="0.8" fill="#FFFFFF" fillRule="nonzero"/>
                            </g>
                        </g>
                    </g>
                </g>
            </g>
        </g>
    </g>
</svg>
