<?xml version="1.0" encoding="UTF-8"?>
<svg width="12px" height="12px" viewBox="0 0 12 12" version="1.1" xmlns="http://www.w3.org/2000/svg" xmlns:xlink="http://www.w3.org/1999/xlink">
    <!-- Generator: Sketch 61 (89581) - https://sketch.com -->
    <title>closeIconGray</title>
    <desc>Created with Sketch.</desc>
    <g id="Page-1" stroke="none" stroke-width="1" fill="none" fill-rule="evenodd">
        <g id="closeIconGray" fill="#B9B9B9" fill-rule="nonzero" stroke="#B9B9B9" stroke-width="0.8">
            <path d="M11.3951691,0.60480736 C11.1220612,0.33173088 10.684058,0.33173088 10.4109501,0.60480736 L6,5.0152501 L1.58904992,0.60480736 C1.31594203,0.33173088 0.87793881,0.33173088 0.60483092,0.60480736 C0.33172303,0.87788384 0.33172303,1.31583669 0.60483092,1.58891317 L5.015781,5.999356 L0.60483092,10.4097987 C0.33172303,10.6828752 0.33172303,11.1208281 0.60483092,11.3939045 C0.73880837,11.5278666 0.91916264,11.6 1.09436393,11.6 C1.26956522,11.6 1.44991948,11.533019 1.58389694,11.3939045 L5.994847,6.9834618 L10.4057971,11.3939045 C10.5397746,11.5278666 10.7201288,11.6 10.8953301,11.6 C11.0756844,11.6 11.2508857,11.533019 11.3848631,11.3939045 C11.657971,11.1208281 11.657971,10.6828752 11.3848631,10.4097987 L6.984219,5.999356 L11.3951691,1.58891317 C11.668277,1.31583669 11.668277,0.87788384 11.3951691,0.60480736 Z" id="Path"></path>
        </g>
    </g>
</svg>