<?xml version="1.0" encoding="UTF-8"?>
<svg width="14px" height="14px" viewBox="0 0 14 14" version="1.1" xmlns="http://www.w3.org/2000/svg" xmlns:xlink="http://www.w3.org/1999/xlink">
    <!-- Generator: Sketch 60.1 (88133) - https://sketch.com -->
    <title>checkboxfill copy 4</title>
    <desc>Created with Sketch.</desc>
    <g id="Page-1" stroke="none" strokeWidth="1" fill="none" fillRule="evenodd">
        <g id="desktopDatatableChipWithFilterdRecord" transform="translate(-366.000000, -316.000000)">
            <g id="Group-7" transform="translate(30.000000, 267.000000)">
                <g id="Group-6-Copy-5" transform="translate(150.000000, 40.000000)">
                    <g id="radioBtnCloseBlue" transform="translate(186.000000, 9.000000)">
                        <g id="Group-8">
                            <rect id="Rectangle-Copy-7" fill="#37A5FE" x="0" y="0" width="14" height="14" rx="7"></rect>
                            <path d="M9.84630053,4.5221089 C9.71154335,4.38736721 9.49542334,4.38736721 9.36066616,4.5221089 L7.18421053,6.69831422 L5.00775489,4.5221089 C4.87299771,4.38736721 4.6568777,4.38736721 4.52212052,4.5221089 C4.38736334,4.65685058 4.38736334,4.87294573 4.52212052,5.00768742 L6.69857615,7.18389274 L4.52212052,9.36009806 C4.38736334,9.49483974 4.38736334,9.7109349 4.52212052,9.84567658 C4.58822782,9.91177628 4.67721841,9.94736842 4.76366641,9.94736842 C4.85011442,9.94736842 4.93910501,9.91431857 5.00521231,9.84567658 L7.18166794,7.66947126 L9.35812357,9.84567658 C9.42423087,9.91177628 9.51322146,9.94736842 9.59966946,9.94736842 C9.68866006,9.94736842 9.77510806,9.91431857 9.84121536,9.84567658 C9.97597254,9.7109349 9.97597254,9.49483974 9.84121536,9.36009806 L7.6698449,7.18389274 L9.84630053,5.00768742 C9.98105772,4.87294573 9.98105772,4.65685058 9.84630053,4.5221089 Z" id="Path" stroke="#FFFFFF" strokeWidth="0.5" fill="#FFFFFF" fillRule="nonzero"></path>
                        </g>
                    </g>
                </g>
            </g>
        </g>
    </g>
</svg>
