<?xml version="1.0" encoding="UTF-8"?>
<svg width="14px" height="17px" viewBox="0 0 14 17" version="1.1" xmlns="http://www.w3.org/2000/svg" xmlns:xlink="http://www.w3.org/1999/xlink">
    <g id="Page-1" stroke="none" strokeWidth="1" fill="none" fillRule="evenodd">
        <g id="desktopManageUsers" transform="translate(-774.000000, -467.000000)" fill="#2E2E2E" fillRule="nonzero">
            <g id="Group-22-Copy-9" transform="translate(714.000000, 467.000000)">
                <g id="delete" transform="translate(60.000000, 0.000000)">
                    <path d="M9.5,6 C9.2238281,6 9,6.17135169 9,6.38277512 L9,13.6172249 C9,13.8284988 9.2238281,14 9.5,14 C9.77617185,14 10,13.8284988 10,13.6172249 L10,6.38277512 C10,6.17135169 9.77617185,6 9.5,6 Z" id="Path"></path>
                    <path d="M4.5,6 C4.2238281,6 4,6.17135169 4,6.38277512 L4,13.6172249 C4,13.8284988 4.2238281,14 4.5,14 C4.77617185,14 5,13.8284988 5,13.6172249 L5,6.38277512 C5,6.17135169 4.77617185,6 4.5,6 Z" id="Path"></path>
                    <path d="M1.1465372,5.06109953 L1.1465372,14.8700363 C1.1465372,15.4498045 1.36209977,15.9942702 1.73866413,16.3849294 C2.11349389,16.7766773 2.63513335,16.9990669 3.18105705,17 L10.818943,17 C11.3650244,16.9990669 11.8866638,16.7766773 12.2613359,16.3849294 C12.6379003,15.9942702 12.8534629,15.4498045 12.8534629,14.8700363 L12.8534629,5.06109953 C13.6020186,4.86514785 14.0870738,4.15194592 13.9869405,3.39442159 C13.8866495,2.63705281 13.2323926,2.07050362 12.457818,2.07034811 L10.3909716,2.07034811 L10.3909716,1.57269305 C10.3933369,1.15419623 10.2255545,0.75233977 9.92515453,0.456701569 C9.62475458,0.161218875 9.21665216,-0.00331833024 8.79230763,5.07380878e-05 L5.2076924,5.07380878e-05 C4.78334787,-0.00331833024 4.37524545,0.161218875 4.0748455,0.456701569 C3.77444554,0.75233977 3.6066631,1.15419623 3.60902846,1.57269305 L3.60902846,2.07034811 L1.54218208,2.07034811 C0.767607467,2.07050362 0.113350545,2.63705281 0.0130594928,3.39442159 C-0.0870737987,4.15194592 0.397981473,4.86514785 1.1465372,5.06109953 Z M10.818943,16.2037519 L3.18105705,16.2037519 C2.49084674,16.2037519 1.95391138,15.6190072 1.95391138,14.8700363 L1.95391138,5.09609089 L12.0460887,5.09609089 L12.0460887,14.8700363 C12.0460887,15.6190072 11.5091533,16.2037519 10.818943,16.2037519 Z M4.41640264,1.57269305 C4.41372188,1.36538862 4.49635158,1.16586003 4.6455266,1.01951835 C4.79454389,0.873176669 4.99733356,0.792774243 5.2076924,0.796351149 L8.79230763,0.796351149 C9.00266643,0.792774243 9.20545614,0.873176669 9.35447343,1.01951835 C9.50364845,1.16570453 9.58627815,1.36538862 9.58359743,1.57269305 L9.58359743,2.07034811 L4.41640264,2.07034811 L4.41640264,1.57269305 Z M1.54218208,2.86659621 L12.457818,2.86659621 C12.8591397,2.86659621 13.1844547,3.18742822 13.1844547,3.5832195 C13.1844547,3.97901078 12.8591397,4.29984279 12.457818,4.29984279 L1.54218208,4.29984279 C1.14086031,4.29984279 0.815545309,3.97901078 0.815545309,3.5832195 C0.815545309,3.18742822 1.14086031,2.86659621 1.54218208,2.86659621 Z" id="Shape"></path>
                    <path d="M7,6 C6.7238281,6 6.5,6.17135169 6.5,6.38277512 L6.5,13.6172249 C6.5,13.8284988 6.7238281,14 7,14 C7.27617185,14 7.5,13.8284988 7.5,13.6172249 L7.5,6.38277512 C7.5,6.17135169 7.27617185,6 7,6 Z" id="Path"></path>
                </g>
            </g>
        </g>
    </g>
</svg>
