<?xml version="1.0" encoding="UTF-8"?>
<svg width="14px" height="14px" viewBox="0 0 14 14" version="1.1" xmlns="http://www.w3.org/2000/svg" xmlns:xlink="http://www.w3.org/1999/xlink">
    <g id="Page-1" stroke="none" strokeWidth="1" fill="none" fillRule="evenodd">
        <g id="desktopManageUsers" transform="translate(-747.000000, -373.000000)" fill="#2E2E2E" fillRule="nonzero">
            <g id="Group-22-Copy-9" transform="translate(714.000000, 371.000000)">
                <g id="pen-2" transform="translate(33.000000, 2.000000)">
                    <path d="M12.3924061,0.563557896 C11.639741,-0.187852632 10.4208936,-0.187852632 9.66822844,0.563557896 L8.98631021,1.24927723 L1.72734024,8.50507745 L1.71191332,8.52062639 C1.70817711,8.52436293 1.70817711,8.52834058 1.70419986,8.52834058 C1.6964864,8.53991187 1.68491621,8.5513626 1.67732326,8.56293389 C1.67732326,8.56679099 1.67334601,8.56679099 1.67334601,8.57064808 C1.66563255,8.58221937 1.66189634,8.58993356 1.65406236,8.60150485 C1.65032614,8.60536195 1.65032614,8.60909851 1.64646941,8.61307614 C1.64261268,8.62464743 1.63875595,8.63236162 1.63477871,8.6439329 C1.63477871,8.64766947 1.63104249,8.64766947 1.63104249,8.6516471 L0.0204958058,13.4951954 C-0.0267491464,13.6330866 0.00916667454,13.7858035 0.11293683,13.8881371 C0.18585317,13.960096 0.284199805,14.0003544 0.386523686,14 C0.428345088,13.9992696 0.469804944,13.9927608 0.509818557,13.9807074 L5.34917204,12.3661511 C5.35290826,12.3661511 5.35290826,12.3661511 5.3568855,12.3624145 C5.3690583,12.3587985 5.38074901,12.3536155 5.39147556,12.3468656 C5.39448863,12.346504 5.39714011,12.3451781 5.39930954,12.343129 C5.41075922,12.3354148 5.42618614,12.3275801 5.43775633,12.3198659 C5.44920598,12.3122723 5.46089672,12.300701 5.47246691,12.2929868 C5.47632364,12.2890092 5.48005983,12.2890092 5.48005983,12.2852726 C5.4840371,12.2814155 5.49175056,12.2776789 5.4956073,12.2698442 L13.4364955,4.32820411 C14.1878348,3.57546772 14.1878348,2.35650487 13.4364955,1.60388901 L12.3924061,0.563557896 Z M5.22587717,11.4605772 L2.54424405,8.77881074 L9.25604034,2.06637892 L11.9376735,4.74814543 L5.22587717,11.4605772 Z M2.16652546,9.49165031 L4.50924839,11.8344745 L0.991427784,13.0058264 L2.16652546,9.49165031 Z M12.893299,3.7886928 L12.4848471,4.2010405 L9.80309347,1.5190329 L10.2155226,1.10680577 C10.6666396,0.656007673 11.3978517,0.656007673 11.8490892,1.10680577 L12.8970352,2.15485107 C13.3447776,2.60805985 13.3430903,3.33765366 12.893299,3.7886928 Z" id="Shape"></path>
                </g>
            </g>
        </g>
    </g>
</svg>
