<?xml version="1.0" encoding="UTF-8"?>
<svg width="24px" height="14px" viewBox="0 0 24 14" version="1.1" xmlns="http://www.w3.org/2000/svg" xmlns:xlink="http://www.w3.org/1999/xlink">
    <g id="Page-1" stroke="none" strokeWidth="1" fill="none" fillRule="evenodd">
        <g id="desktopManageUsers" transform="translate(-714.000000, -373.000000)" fill="#2E2E2E" fillRule="nonzero">
            <g id="Group-22-Copy-9" transform="translate(714.000000, 371.000000)">
                <g id="visibility" transform="translate(0.000000, 2.000000)">
                    <path d="M23.9111417,6.71600813 C23.7221385,6.44099281 19.1800618,0 11.9999563,0 C5.83883678,0 0.348744165,6.40400848 0.117740268,6.67700817 C-0.0392467558,6.86300797 -0.0392467558,7.13600766 0.117740268,7.32299183 C0.348744165,7.59599152 5.83883678,14 11.9999563,14 C18.1610759,14 23.6511217,7.59599152 23.8821255,7.32299183 C24.0271592,7.15100764 24.0401438,6.90200792 23.9111417,6.71600813 Z M11.9999563,13.0000167 C7.06088865,13.0000167 2.36477818,8.290022 1.1717893,7.00003013 C2.36280939,5.7090405 7.05390416,1.00003013 11.9999563,1.00003013 C17.7790382,1.00003013 21.8581227,5.70304051 22.8541395,6.97302347 C21.7040888,8.22200645 16.9810248,13.0000167 11.9999563,13.0000167 Z" id="Shape"></path>
                    <path d="M12,3 C9.79400701,3 8,4.79400701 8,7 C8,9.20599299 9.79400701,11 12,11 C14.205993,11 16,9.20599299 16,7 C16,4.79400701 14.205993,3 12,3 Z M12,10.0000586 C10.3460092,10.0000586 8.99998828,8.65403771 8.99998828,7.00004688 C8.99998828,5.34605604 10.3460092,4.00003516 12,4.00003516 C13.6539908,4.00003516 15.0000117,5.34605604 15.0000117,7.00004688 C15.0000117,8.65403771 13.6539908,10.0000586 12,10.0000586 Z" id="Shape"></path>
                </g>
            </g>
        </g>
    </g>
</svg>
