<?xml version="1.0" encoding="UTF-8"?>
<svg width="26px" height="23px" viewBox="0 0 26 23" version="1.1" xmlns="http://www.w3.org/2000/svg" xmlns:xlink="http://www.w3.org/1999/xlink">
    <!-- Generator: Sketch 60.1 (88133) - https://sketch.com -->
    <title>passwordHide</title>
    <desc>Created with Sketch.</desc>
    <g id="Page-1" stroke="none" strokeWidth="1" fill="none" fillRule="evenodd">
        <g id="desktopChangePassword" transform="translate(-1041.000000, -539.000000)">
            <g id="passwordHide" transform="translate(1041.000000, 539.000000)">
                <g id="hide">
                    <path d="M25.7948283,12.3386959 C24.5173986,10.6920189 23.193423,9.3053436 21.8487602,8.2057534 C21.4401896,7.87533467 20.8557784,7.95116848 20.5351281,8.37367112 C20.2196495,8.79617376 20.2920544,9.40826091 20.6954532,9.74409634 C21.7608399,10.6161851 22.8262266,11.6995252 23.8605826,12.9670331 C23.2503125,13.7145378 22.0608031,15.0578795 20.4472078,16.2874706 C17.3389681,18.6545687 14.1996976,19.5104074 11.1224886,18.8279031 C10.6208259,18.7141524 10.124335,19.0554045 10.0208994,19.5808245 C9.91229204,20.1062444 10.2381142,20.6262477 10.7397768,20.7345817 C11.5414027,20.9133328 12.3482004,21 13.1601699,21 C14.3807099,21 15.6115935,20.7995821 16.8373054,20.3987462 C18.445729,19.8733263 20.043809,19.0066542 21.5901712,17.8258135 C24.1967483,15.827051 25.753454,13.6224539 25.8206872,13.53037 C26.0689326,13.1728678 26.058589,12.6853647 25.7948283,12.3386959 Z" id="Path" fill="#B9B9B9" fillRule="nonzero"></path>
                    <line x1="0.948990137" y1="2" x2="21.8863438" y2="20.5910522" id="Path-5" stroke="#B9B9B9" strokeWidth="2" stroke-linecap="round" stroke-linejoin="round" transform="translate(11.417667, 11.295526) rotate(92.000000) translate(-11.417667, -11.295526) "></line>
                    <path d="M13,17 C15.209139,17 17,15.209139 17,13 C17,10.790861 15.209139,9 13,9 C13,9 9,13 9,13 C9,15.209139 10.790861,17 13,17 Z" id="Oval" fill="#B9B9B9"></path>
                    <path d="M15.7948283,9.33869589 C14.5173986,7.69201893 13.193423,6.3053436 11.8487602,5.2057534 C11.4401896,4.87533467 10.8557784,4.95116848 10.5351281,5.37367112 C10.2196495,5.79617376 10.2920544,6.40826091 10.6954532,6.74409634 C11.7608399,7.61618513 12.8262266,8.69952523 13.8605826,9.96703315 C13.2503125,10.7145378 12.0608031,12.0578795 10.4472078,13.2874706 C7.33896805,15.6545687 4.19969762,16.5104074 1.12248855,15.8279031 C0.620825897,15.7141524 0.124335022,16.0554045 0.0208994226,16.5808245 C-0.0877079563,17.1062444 0.238114181,17.6262477 0.739776836,17.7345817 C1.54140273,17.9133328 2.3482004,18 3.16016985,18 C4.38070992,18 5.61159355,17.7995821 6.8373054,17.3987462 C8.44572896,16.8733263 10.043809,16.0066542 11.5901712,14.8258135 C14.1967483,12.827051 15.753454,10.6224539 15.8206872,10.53037 C16.0689326,10.1728678 16.058589,9.68536472 15.7948283,9.33869589 Z" id="Path-Copy" fill="#B9B9B9" fillRule="nonzero" transform="translate(8.000000, 11.500000) scale(-1, -1) translate(-8.000000, -11.500000) "></path>
                </g>
            </g>
        </g>
    </g>
</svg>
