<?xml version="1.0" encoding="UTF-8"?>
<svg width="20px" height="45px" viewBox="0 0 20 45" version="1.1" xmlns="http://www.w3.org/2000/svg" xmlns:xlink="http://www.w3.org/1999/xlink">
    <!-- Generator: Sketch 60.1 (88133) - https://sketch.com -->
    <title>Group 8</title>
    <desc>Created with Sketch.</desc>
    <g id="Page-1" stroke="none" strokeWidth="1" fill="none" fillRule="evenodd">
        <g id="desktopFullScreenLoaderonButton" transform="translate(-596.000000, -466.000000)" fillRule="nonzero">
            <g id="Group-5" transform="translate(551.000000, 450.000000)">
                <g id="Group-6" transform="translate(17.000000, 0.000000)">
                    <g id="Group-8" transform="translate(28.000000, 16.000000)">
                        <rect id="Rectangle_2" fill="#00284E" x="4" y="0" width="14" height="2" rx="1"></rect>
                        <rect id="Rectangle_3" fill="#00284E" x="4" y="3" width="14" height="2" rx="1"></rect>
                        <rect id="Rectangle_4" fill="#00284E" x="4" y="6" width="14" height="2" rx="1"></rect>
                        <ellipse id="Ellipse_16" fill="#FE4141" cx="11.5" cy="4" rx="1.5" ry="2"></ellipse>
                        <path d="M11.0334387,11.7455579 L4.00457512,10 C4.00457512,10 2.58595169,12.7983167 2.83859248,15.9027048 C3.09123326,19.0070928 3.99818341,21.5109611 6.87916302,24.5998519 C8.67017373,26.5751682 10.0684391,28.9034001 10.9927336,31.4492999 C10.9927336,31.4492999 12.1028729,36.5109247 8.5884411,37.4316043 C8.21839467,37.4604857 5.86759066,37.6122886 5.61158582,34.6452628 C5.63580704,34.6181426 5.48543363,32.7707957 7.61286416,31.8888593 C7.73195183,31.8515249 6.63291395,30.2686885 6.63291395,30.2686885 L7.10690978,27.8947861 C7.10690978,27.8947861 0.0666083563,27.8863331 0,36.0745352 C0.0437327592,37.6411699 1.09903788,44.819583 9.55123461,44.9932231 C9.57175537,45.0358406 19.7069905,45.2323744 20,32.6499873 C19.965378,31.6508539 19.8354399,30.6578469 19.6121241,29.6857792 C18.2853394,25.5902693 17.7242145,22.553858 17.8991455,21.0421682 C17.935141,20.9329828 18.926529,14.4230662 18.926529,14.4230662 C19.0693551,13.694294 19.1304336,12.9505563 19.1085245,12.2069544 C19.0585567,11.4587449 18.9269503,10.7189828 18.7162753,10.0021133 L11.0334387,11.7455579 Z" id="Path_124" fill="#FE4141"></path>
                    </g>
                </g>
            </g>
        </g>
    </g>
</svg>
