<?xml version="1.0" encoding="UTF-8"?>
<svg width="22px" height="16px" viewBox="0 0 22 16" version="1.1" xmlns="http://www.w3.org/2000/svg" xmlns:xlink="http://www.w3.org/1999/xlink">
    <!-- Generator: Sketch 60.1 (88133) - https://sketch.com -->
    <title>credit-card</title>
    <desc>Created with Sketch.</desc>
    <g id="Page-1" stroke="none" strokeWidth="1" fill="none" fillRule="evenodd">
        <g id="desktopDashboardUsers" transform="translate(-885.000000, -146.000000)" fill="#002A4C" fillRule="nonzero">
            <g id="credit-card" transform="translate(886.000000, 147.000000)">
                <path d="M17.9167147,0 L2.08332438,0 C0.935001826,0 0,0.981748083 0,2.18752307 L0,11.8125179 C0,13.0182519 0.935001826,14 2.08332438,14 L17.9166756,14 C19.0649982,14 20,13.0182519 20,11.8125179 L20,2.18752307 C20,0.981748083 19.0650372,0 17.9167147,0 Z M19.1667171,11.8124769 C19.1667171,12.5361142 18.6058957,13.1249744 17.9167147,13.1249744 L2.08332438,13.1249744 C1.39414335,13.1249744 0.83332194,12.5361142 0.83332194,11.8124769 L0.83332194,2.18752307 C0.83332194,1.46388581 1.39414335,0.875025635 2.08332438,0.875025635 L17.9166756,0.875025635 C18.6058567,0.875025635 19.1667171,1.46388581 19.1667171,2.18752307 L19.1667171,11.8124769 L19.1667171,11.8124769 Z" id="Shape" stroke="#002A4C" strokeWidth="0.4"></path>
                <path d="M19.5832821,3 L0.416678874,3 C0.186679323,3 0,3.16801041 0,3.37500879 L0,5.62499121 C0,5.83198959 0.186679323,6 0.416678874,6 L19.5833211,6 C19.8133207,6 20,5.83198959 20,5.62499121 L20,3.37500879 C20,3.16801041 19.8132816,3 19.5832821,3 Z M19.1666423,5.24998242 L0.833318685,5.24998242 L0.833318685,3.74998242 L19.1666423,3.74998242 L19.1666423,5.24998242 L19.1666423,5.24998242 Z" id="Shape" stroke="#002A4C" strokeWidth="0.4"></path>
                <path d="M8.16325437,8 L3.26531706,8 C3.04001194,8 2.85714286,8.22401913 2.85714286,8.50002344 C2.85714286,8.77602775 3.04001194,9 3.26531706,9 L8.16325437,9 C8.38855949,9 8.57142857,8.77598087 8.57142857,8.49997656 C8.57142857,8.22397225 8.38855949,8 8.16325437,8 Z" id="Path"></path>
                <path d="M8.16325437,10 L3.26531706,10 C3.04001194,10 2.85714286,10.2240086 2.85714286,10.5 C2.85714286,10.7759914 3.04001194,11 3.26531706,11 L8.16325437,11 C8.38855949,11 8.57142857,10.7759914 8.57142857,10.5 C8.57142857,10.2240086 8.38855949,10 8.16325437,10 Z" id="Path"></path>
                <path d="M16.0714244,8 L15.357147,8 C14.7664193,8 14.2857143,8.50474025 14.2857143,9.12500439 L14.2857143,9.87499561 C14.2857143,10.4952597 14.7664193,11 15.357147,11 L16.0714244,11 C16.6621521,11 17.1428571,10.4952597 17.1428571,9.87499561 L17.1428571,9.12500439 C17.1428571,8.50477541 16.6621521,8 16.0714244,8 Z M16.4285798,9.87503076 C16.4285798,10.0820316 16.268568,10.2500439 16.0714244,10.2500439 L15.357147,10.2500439 C15.1600034,10.2500439 14.9999916,10.0820316 14.9999916,9.87503076 L14.9999916,9.12503955 C14.9999916,8.91803874 15.1600034,8.75002637 15.357147,8.75002637 L16.0714244,8.75002637 C16.268568,8.75002637 16.4285798,8.91803874 16.4285798,9.12503955 L16.4285798,9.87503076 Z" id="Shape" stroke="#002A4C" strokeWidth="0.4"></path>
            </g>
        </g>
    </g>
</svg>
