<?xml version="1.0" encoding="UTF-8"?>
<svg width="18px" height="17px" viewBox="0 0 18 17" version="1.1" xmlns="http://www.w3.org/2000/svg" xmlns:xlink="http://www.w3.org/1999/xlink">
    <!-- Generator: Sketch 60.1 (88133) - https://sketch.com -->
    <title>search</title>
    <desc>Created with Sketch.</desc>
    <g id="Page-1" stroke="none" strokeWidth="1" fill="none" fillRule="evenodd">
        <g id="desktopDashboardUsers" transform="translate(-41.000000, -161.000000)" fill="#A6A6A6" fillRule="nonzero">
            <g id="Group-27" transform="translate(30.000000, 131.000000)">
                <g id="Group-9-Copy-7">
                    <g id="filter-copy" transform="translate(0.000000, 20.000000)">
                        <g id="search" transform="translate(11.946086, 10.000000)">
                            <path d="M16.6663086,14.7469585 L12.4943465,10.7392714 C13.5670313,9.56149282 14.1547616,8.07960638 14.1547616,6.53689837 C14.1547616,2.93250945 10.979787,0 7.0773808,0 C3.17497457,0 0,2.93250945 0,6.53689837 C0,10.1412873 3.17497457,13.0737967 7.0773808,13.0737967 C8.54239863,13.0737967 9.93848892,12.6656669 11.1321046,11.8909023 L15.3357611,15.9290003 C15.5114647,16.0975385 15.7477877,16.1904762 16.0010349,16.1904762 C16.2407427,16.1904762 16.468142,16.1060649 16.6407685,15.9525899 C17.0075615,15.6265977 17.0192545,15.0860246 16.6663086,14.7469585 Z M7.0773808,1.70527783 C9.96187504,1.70527783 12.3084883,3.87268596 12.3084883,6.53689837 C12.3084883,9.20111077 9.96187504,11.3685189 7.0773808,11.3685189 C4.19288656,11.3685189 1.84627325,9.20111077 1.84627325,6.53689837 C1.84627325,3.87268596 4.19288656,1.70527783 7.0773808,1.70527783 Z" id="Shape"></path>
                        </g>
                    </g>
                </g>
            </g>
        </g>
    </g>
</svg>
