<?xml version="1.0" encoding="UTF-8"?>
<svg width="26px" height="17px" viewBox="0 0 26 17" version="1.1" xmlns="http://www.w3.org/2000/svg" xmlns:xlink="http://www.w3.org/1999/xlink">
    <!-- Generator: Sketch 60.1 (88133) - https://sketch.com -->
    <title>view</title>
    <desc>Created with Sketch.</desc>
    <g id="Page-1" stroke="none" strokeWidth="1" fill="none" fillRule="evenodd">
        <g id="desktopChangePassword" transform="translate(-1040.000000, -354.000000)" fill="#002A4C">
            <g id="passwordView" transform="translate(1040.000000, 354.000000)">
                <g id="view">
                    <path d="M25.8347834,7.79595912 C25.6025093,7.49041372 20.0682,0.314516138 12.9998861,0.314516138 C5.93157222,0.314516138 0.397008986,7.49041372 0.164988769,7.79566613 C-0.0549962564,8.08553627 -0.0549962564,8.47868731 0.164988769,8.76855745 C0.397008986,9.07410285 5.93157222,16.2500004 12.9998861,16.2500004 C20.0682,16.2500004 25.6025093,9.07405402 25.8347834,8.76880162 C26.0550731,8.4789803 26.0550731,8.08553627 25.8347834,7.79595912 Z M12.9998861,14.6015105 C7.79331992,14.6015105 3.2838808,9.83872326 1.94899014,8.28169671 C3.28215424,6.72330285 7.78214801,1.96300609 12.9998861,1.96300609 C18.2061984,1.96300609 22.7153328,6.72496316 24.050782,8.28281986 C22.7176179,9.84116489 18.2176242,14.6015105 12.9998861,14.6015105 Z" id="Shape" fillRule="nonzero"></path>
                    <circle id="Oval" cx="13" cy="8.375" r="4"></circle>
                </g>
            </g>
        </g>
    </g>
</svg>
