<svg xmlns="http://www.w3.org/2000/svg" width="24" height="14" viewBox="0 0 24 14">
    <g fill="#2E2E2E">
        <path d="M23.911 6.716C23.722 6.441 19.181 0 12 0 5.839 0 .349 6.404.118 6.677c-.157.186-.157.459 0 .646C.348 7.596 5.838 14 12 14c6.161 0 11.651-6.404 11.882-6.677.145-.172.158-.421.03-.607zM12 13C7.06 13 2.365 8.29 1.172 7 2.362 5.709 7.054 1 12 1c5.779 0 9.858 4.703 10.854 5.973C21.704 8.222 16.981 13 12 13z"/>
        <path d="M12 3C9.794 3 8 4.794 8 7s1.794 4 4 4 4-1.794 4-4-1.794-4-4-4zm0 7c-1.654 0-3-1.346-3-3s1.346-3 3-3 3 1.346 3 3-1.346 3-3 3z"/>
    </g>
</svg>
