<?xml version="1.0" encoding="UTF-8"?>
<svg width="657px" height="418px" viewBox="0 0 657 418" version="1.1" xmlns="http://www.w3.org/2000/svg" xmlns:xlink="http://www.w3.org/1999/xlink">
    <!-- Generator: Sketch 60.1 (88133) - https://sketch.com -->
    <title>Group</title>
    <desc>Created with Sketch.</desc>
    <defs>
        <path d="M48.8145946,10.7890417 L26.6944054,29.6680417 L0.618459459,11.768125 C0.618459459,11.768125 9.49408108,8.86575 24.7118919,12.8169583 L40.2859459,0.0527083333 L48.8145946,10.7890417" id="path-1"></path>
        <linearGradient x1="20.3555629%" y1="29.4396172%" x2="84.3414942%" y2="57.5930968%" id="linearGradient-3">
            <stop stop-color="#141C28" offset="0%"></stop>
            <stop stop-color="#303439" offset="100%"></stop>
        </linearGradient>
        <path d="M37.8541471,3.93634615 L31.5770686,33.1021154 L0.187764706,33.7496154 C0.187764706,33.7496154 5.49733333,25.9715385 19.9369608,20.1386538 L24.6715,0.0473076923 L37.8541471,3.93634615" id="path-4"></path>
        <linearGradient x1="-0.00346176481%" y1="50%" x2="100%" y2="50%" id="linearGradient-6">
            <stop stop-color="#141C28" offset="0%"></stop>
            <stop stop-color="#303439" offset="100%"></stop>
        </linearGradient>
        <path d="M27.00144,37.2202941 C27.0232,37.2401471 26.6696,35.6505882 29.45624,33.0975 C38.67296,24.6533824 28.81568,8.13573529 18.77344,5.25970588 C13.63536,3.78794118 10.35096,5.33911765 8.50816,0.370588235 C8.64144,0.726617647 6.43144,1.63852941 6.21248,1.81852941 C5.00888,2.81117647 4.43496,3.51 4.39552,5.14985294 C4.22552,12.3683824 10.86368,19.0892647 15.88752,23.6355882 C18.14512,25.6804412 12.58816,24.2695588 10.34552,24.6864706 C8.8876,24.9577941 5.10408,28.8476471 4.2908,29.4366176 C6.39744,31.9883824 8.27288,29.6841176 11.11392,30.9176471 C13.73872,32.0572059 12.07544,35.3064706 9.6288,35.6916176 C5.83984,36.2872059 4.2976,33.8558824 4.2976,33.8558824 C2.56224,34.7730882 2.28344,40.2485294 0.91936,41.6805882 C2.80296,42.6864706 13.78224,44.5645588 16.35808,44.5344832 C21.86064,44.4705882 25.2348,41.5085294 27.00144,37.2202941" id="path-7"></path>
        <linearGradient x1="65.1700903%" y1="89.3663185%" x2="18.9388182%" y2="18.6539453%" id="linearGradient-9">
            <stop stop-color="#141C28" offset="0%"></stop>
            <stop stop-color="#303439" offset="100%"></stop>
        </linearGradient>
        <path d="M0.0774783323,90.419443 C0.0774783323,90.419443 30.0923543,101.665924 70.0955898,86.4213671 C110.097515,71.179443 121.011062,0.00263291139 121.011062,0.00263291139 L125.588514,2.33407595 C125.588514,2.33407595 121.132935,80.8790886 68.4653721,97.9482532 C28.2000438,110.995646 0.0774783323,95.457519 0.0774783323,95.457519 L0.0774783323,90.419443" id="path-10"></path>
        <linearGradient x1="0%" y1="50.0001717%" x2="99.9991647%" y2="50.0001717%" id="linearGradient-12">
            <stop stop-color="#141C28" offset="0%"></stop>
            <stop stop-color="#303439" offset="100%"></stop>
        </linearGradient>
    </defs>
    <g id="Page-1" stroke="none" strokeWidth="1" fill="none" fillRule="evenodd">
        <g id="desktop404ErorPage" transform="translate(-272.000000, -175.000000)">
            <g id="Group" transform="translate(272.000000, 175.000000)">
                <polyline id="Fill-2" fill="#D1A169" points="558 324.037559 601.138825 417 606 416.984294 568.697735 318 558 324.037559"></polyline>
                <polyline id="Fill-3" fill="#D1A169" points="513 326.085304 469.861175 418 465 417.984132 502.302265 324 513 326.085304"></polyline>
                <g id="Group-6" transform="translate(353.000000, 387.000000)">
                    <mask id="mask-2" fill="white">
                        <use xlink:href="#path-1"></use>
                    </mask>
                    <g id="Clip-5"></g>
                    <path d="M48.8145946,10.7890417 L26.6944054,29.6680417 L0.618459459,11.768125 C0.618459459,11.768125 9.49408108,8.86575 24.7118919,12.8169583 L40.2859459,0.0527083333 L48.8145946,10.7890417" id="Fill-4" fill="url(#linearGradient-3)" mask="url(#mask-2)"></path>
                </g>
                <path d="M529.853127,290 C529.853127,290 481.08199,315.093493 463.851239,322.601249 C446.620488,330.10768 388,389.035811 388,389.035811 C388,389.035811 395.504268,404.376249 399.257723,401.682687 C432.357094,377.926029 462.849789,356.670629 482.445442,349.253056 C521.246999,334.567773 532.062129,331.374224 542,319.812199 C542,319.812199 536.17098,305.91602 529.853127,290" id="Fill-7" fill="#407BFF"></path>
                <g id="Group-10" transform="translate(416.000000, 383.000000)">
                    <mask id="mask-5" fill="white">
                        <use xlink:href="#path-4"></use>
                    </mask>
                    <g id="Clip-9"></g>
                    <path d="M37.8541471,3.93634615 L31.5770686,33.1021154 L0.187764706,33.7496154 C0.187764706,33.7496154 5.49733333,25.9715385 19.9369608,20.1386538 L24.6715,0.0473076923 L37.8541471,3.93634615" id="Fill-8" fill="url(#linearGradient-6)" mask="url(#mask-5)"></path>
                </g>
                <path d="M530.725809,285 C530.725809,285 485.300778,289.874096 468.742297,298.743265 C452.18117,307.615067 439,388.956144 439,388.956144 C439,388.956144 451.862356,395.901467 453.455103,391.587945 C466.300261,356.794219 480.551641,329.543234 480.551641,329.543234 C496.873326,326.577194 534.67725,344.877423 562,318.105426 C562,318.105426 538.370729,300.205231 530.725809,285" id="Fill-11" fill="#407BFF"></path>
                <path d="M609,229.867377 C609,229.867377 605.861507,235.253385 603.881433,242 L586,240.289073 C586,240.289073 595.23317,225.792117 594.526724,217 L609,229.867377" id="Fill-12" fill="#FF8B7B"></path>
                <path d="M605.623331,198.638633 C604.563453,198.349225 600.575036,197.22013 599.768894,197.558451 C598.648226,198.027209 599.949946,199.536746 599.162306,200.457958 C597.887017,201.949831 595.333795,201.981082 593.688474,202.887348 C591.694265,203.985193 590.17449,205.428153 589.262625,207.076279 C587.74285,209.82225 593.277474,215.951433 594.145728,220.545262 C595.957563,230.154124 607.770839,231.575345 617.369208,228.633718 C620.801256,227.582069 623.955779,224.40946 625.827085,221.331961 C628.026133,217.71505 626.786525,211.670109 624.944294,208.068144 C623.839484,205.90778 621.651008,204.046335 619.741378,202.691692 C618.010156,201.46341 617.531758,196.361419 615.447684,196 C615.447684,196 608.010038,199.289459 605.623331,198.638633" id="Fill-13" fill="#FF8B7B"></path>
                <g id="Group-16" transform="translate(605.000000, 188.000000)">
                    <mask id="mask-8" fill="white">
                        <use xlink:href="#path-7"></use>
                    </mask>
                    <g id="Clip-15"></g>
                    <path d="M27.00144,37.2202941 C27.0232,37.2401471 26.6696,35.6505882 29.45624,33.0975 C38.67296,24.6533824 28.81568,8.13573529 18.77344,5.25970588 C13.63536,3.78794118 10.35096,5.33911765 8.50816,0.370588235 C8.64144,0.726617647 6.43144,1.63852941 6.21248,1.81852941 C5.00888,2.81117647 4.43496,3.51 4.39552,5.14985294 C4.22552,12.3683824 10.86368,19.0892647 15.88752,23.6355882 C18.14512,25.6804412 12.58816,24.2695588 10.34552,24.6864706 C8.8876,24.9577941 5.10408,28.8476471 4.2908,29.4366176 C6.39744,31.9883824 8.27288,29.6841176 11.11392,30.9176471 C13.73872,32.0572059 12.07544,35.3064706 9.6288,35.6916176 C5.83984,36.2872059 4.2976,33.8558824 4.2976,33.8558824 C2.56224,34.7730882 2.28344,40.2485294 0.91936,41.6805882 C2.80296,42.6864706 13.78224,44.5645588 16.35808,44.5344832 C21.86064,44.4705882 25.2348,41.5085294 27.00144,37.2202941" id="Fill-14" fill="url(#linearGradient-9)" mask="url(#mask-8)"></path>
                </g>
                <path d="M608.775191,232.72048 C612.694751,276.254391 562.349391,317.994489 562.349391,317.994489 C562.349391,317.994489 529.475921,319.226829 531.055129,284.835962 C531.055129,284.835962 533.613896,278.581999 553.964895,260.218148 C567.562233,247.950099 577.112933,229.640287 586.680841,230.005376 C612.811239,231.000475 608.775191,232.72048 608.775191,232.72048" id="Fill-17" fill="#264999"></path>
                <g id="Group-20" transform="translate(487.000000, 230.000000)">
                    <mask id="mask-11" fill="white">
                        <use xlink:href="#path-10"></use>
                    </mask>
                    <g id="Clip-19"></g>
                    <path d="M0.0774783323,90.419443 C0.0774783323,90.419443 30.0923543,101.665924 70.0955898,86.4213671 C110.097515,71.179443 121.011062,0.00263291139 121.011062,0.00263291139 L125.588514,2.33407595 C125.588514,2.33407595 121.132935,80.8790886 68.4653721,97.9482532 C28.2000438,110.995646 0.0774783323,95.457519 0.0774783323,95.457519 L0.0774783323,90.419443" id="Fill-18" fill="url(#linearGradient-12)" mask="url(#mask-11)"></path>
                </g>
                <path d="M603,275.974514 C603,275.974514 607.984367,292.793963 608.260973,301.177807 C608.538942,309.561651 604.85994,338.02319 604.85994,338.02319 L612.786146,339 C612.786146,339 619.830754,305.077084 619.99699,294.005685 C620.160501,282.935613 613.60779,265 613.60779,265 L603,275.974514" id="Fill-21" fill="#FF8B7B"></path>
                <path d="M602.582439,276.517755 C608.101741,300.853853 605.813792,333.469894 605.813792,333.469894 L614.062692,334 C623.106036,314.909581 622.259325,272.60921 617.478282,254.812409 C614.667672,244.356656 613.013449,233.813871 606.00195,232.187948 C601.619436,231.171251 592.603531,234.408592 591.39749,238.779991 C588.776345,248.266519 599.875054,264.581133 602.582439,276.517755" id="Fill-22" fill="#264999"></path>
                <path d="M601.975705,342.097352 C600.221523,345.532098 599.426914,348.048926 600.459527,348.916351 C601.172282,349.514486 602.320749,346.17943 603.705962,344.989633 C604.112711,346.378808 604.16686,348.974611 603.302991,351.160005 C602.324527,353.636699 602.410158,355.753476 604.239898,355.936024 C606.069638,356.118571 609.046586,355.994284 609.710229,354.434213 C610.370093,352.875436 611.876197,346.369746 612.689695,344.206361 C613.503192,342.041682 612.423986,339.554631 612.73377,338.315636 C613.043554,337.075348 607.327663,335 607.327663,335 C607.014101,335.498446 605.253622,337.967372 605.253622,337.967372 C605.253622,337.967372 603.768926,339.794144 603.258916,340.126872 C602.746387,340.459601 601.975705,342.097352 601.975705,342.097352" id="Fill-23" fill="#FF8B7B"></path>
                <line x1="556.5" y1="0" x2="556.5" y2="58" id="Stroke-24" stroke="#D1D7D9" strokeWidth="0.25"></line>
                <path d="M565.969856,79.7697029 C565.544838,85.2755408 560.736179,89.3948768 555.230387,88.9698556 C549.724596,88.5448345 545.603999,83.7374308 546.030312,78.2302971 C546.45533,72.7244592 551.263989,68.6051232 556.76978,69.0301444 C562.275572,69.4551655 566.394873,74.2625692 565.969856,79.7697029" id="Fill-25" fill="#FFC107"></path>
                <polyline id="Fill-26" fill="#CFD9E2" points="604 84 508 84 550.013256 54 561.985427 54 604 84"></polyline>
                <line x1="104.5" y1="0" x2="104.5" y2="58" id="Stroke-27" stroke="#D1D7D9" strokeWidth="0.25"></line>
                <path d="M113.969856,79.7697029 C113.544834,85.2755408 108.737431,89.3948768 103.230297,88.9698556 C97.7244592,88.5448345 93.6051232,83.7374308 94.0301444,78.2302971 C94.4551655,72.7244592 99.2625692,68.6051232 104.769703,69.0301444 C110.275541,69.4551655 114.394877,74.2625692 113.969856,79.7697029" id="Fill-28" fill="#FFC107"></path>
                <polyline id="Fill-29" fill="#CFD9E2" points="152 84 56 84 98.0139968 54 109.986003 54 152 84"></polyline>
                <line x1="0" y1="417.5" x2="657" y2="417.5" id="Stroke-30" stroke="#9FA7AE" strokeWidth="0.5"></line>
                <path d="M239,216 C239,216 241.042615,211.077369 244.754408,206.689778 C248.4662,202.303495 254,195 254,195 C254,195 251.302206,200.198654 247.636927,206.072323 C243.972978,211.945991 239,216 239,216" id="Fill-31" fill="#58B57B"></path>
                <path d="M243,207 C243,207 247.002353,203.785328 249.406096,196.982922 C251.809838,190.179194 254,185 254,185 C254,185 248.808072,192.59086 246.576489,197.852075 C244.344905,203.111966 243,207 243,207" id="Fill-32" fill="#58B57B"></path>
                <path d="M239.664222,213 C239.664222,213 241.366912,205.57527 241.701764,199.648867 C242.036616,193.722463 241.998708,190 241.998708,190 C241.998708,190 239.850602,200.753362 239.203011,205.32029 C238.555421,209.887218 239.664222,213 239.664222,213" id="Fill-33" fill="#58B57B"></path>
                <path d="M237.912598,219 C237.912598,219 238.52499,210.957221 236.507769,203.762797 C234.490547,196.567045 234.381572,192 234.381572,192 C234.381572,192 233.412643,199.532969 234.562802,206.026405 C235.711778,212.519841 237.912598,219 237.912598,219" id="Fill-34" fill="#58B57B"></path>
                <path d="M238,218 C238,218 243.893511,213.361605 246.872453,212.269847 C249.851395,211.179351 254,208 254,208 C254,208 248.878959,214.040641 246.020544,215.237158 C243.16213,216.434936 238,218 238,218" id="Fill-35" fill="#58B57B"></path>
                <path d="M236.941516,225 C236.941516,225 237.580627,220.589627 234.633363,214.339377 C231.686099,208.090461 231.004075,205 231.004075,205 C231.004075,205 230.829354,213.484768 232.768142,216.668555 C234.708462,219.852343 236.941516,225 236.941516,225" id="Fill-36" fill="#58B57B"></path>
                <path d="M237,220.87402 C237,220.87402 240.13952,219.079388 243.166053,218.716331 C246.192586,218.352187 247,218 247,218 C247,218 245.46896,220.394655 241.736575,220.799018 C238.004189,221.202294 237,220.87402 237,220.87402" id="Fill-37" fill="#58B57B"></path>
                <path d="M235,228.760672 C235.73951,225.945729 236.693671,221.593394 237.67553,218.686424 C239.84282,212.268895 245,204 245,204 C241.850852,210.826237 239.550616,214.665657 237.966348,220.552677 C237.339011,222.887185 236.254674,226.125723 235.667498,228.24099 C235.571943,228.821572 235.096939,229.308774 235,228.760672" id="Fill-38" fill="#58B57B"></path>
                <path d="M236,218 C236,218 235.664423,212.186667 233.388572,206.343695 C231.114103,200.500724 228,191 228,191 C228,191 228.921112,197.327978 230.603142,204.693329 C232.286553,212.05868 236,218 236,218" id="Fill-39" fill="#83C494"></path>
                <path d="M234,208 C234,208 231.56129,203.354734 231.466667,195.667294 C231.373118,187.981177 231,182 231,182 C231,182 233.202151,191.465127 233.586022,197.540215 C233.969892,203.616625 234,208 234,208" id="Fill-40" fill="#83C494"></path>
                <path d="M236,217 C236,217 236.602356,208.181637 238.5243,201.600566 C240.446244,195.020857 242,191 242,191 C242,191 240.680412,203.628026 239.748159,208.873808 C238.815906,214.118227 236,217 236,217" id="Fill-41" fill="#83C494"></path>
                <path d="M236,223 C236,223 238.041172,214.603009 242.689861,208.095977 C247.337255,201.588944 249,197 249,197 C249,197 247.521284,205.017928 244.064899,211.152594 C240.607218,217.288599 236,223 236,223" id="Fill-42" fill="#83C494"></path>
                <path d="M236,220 C236,220 231.928452,213.092969 229.412732,210.932356 C226.897011,208.77041 224,204 224,204 C224,204 226.803688,212.134622 229.162093,214.368544 C231.521831,216.602466 236,220 236,220" id="Fill-43" fill="#83C494"></path>
                <path d="M236,228 C236,228 236.959154,223.453818 241.654519,218.152995 C246.349884,212.852173 248,210 248,210 C248,210 245.244082,218.433365 242.472311,221.003858 C239.700539,223.575661 236,228 236,228" id="Fill-44" fill="#83C494"></path>
                <path d="M236,225 C236,225 233.538912,221.730176 230.607454,220.218857 C227.675996,218.708838 227,218 227,218 C227,218 227.577038,221.421929 231.210196,223.231091 C234.843353,225.038952 236,225 236,225" id="Fill-45" fill="#83C494"></path>
                <path d="M236.187926,232.814393 C236.421931,229.783679 236.958992,225.16437 236.997353,221.96188 C237.084306,214.892432 235,205 235,205 C235.691785,212.800494 236.571541,217.361213 236.117597,223.711598 C235.937298,226.228316 235.88615,229.791669 235.739097,232.080683 C235.638079,232.685228 235.919396,233.324395 236.187926,232.814393" id="Fill-46" fill="#58B57B"></path>
                <path d="M232,219 C232,219 229.957566,214.076061 226.244773,209.689778 C222.53331,205.303495 217,198 217,198 C217,198 219.700213,203.198654 223.362509,209.072323 C227.027463,214.945991 232,219 232,219" id="Fill-47" fill="#58B57B"></path>
                <path d="M228,210 C228,210 223.997647,206.785328 221.593904,199.982922 C219.190162,193.179194 217,188 217,188 C217,188 222.191928,195.589537 224.423511,200.850752 C226.655095,206.111966 228,210 228,210" id="Fill-48" fill="#58B57B"></path>
                <path d="M231.335778,217 C231.335778,217 229.632035,209.57527 229.298236,203.648867 C228.963384,197.721201 229.001292,194 229.001292,194 C229.001292,194 231.149398,204.753362 231.796989,209.32029 C232.444579,213.887218 231.335778,217 231.335778,217" id="Fill-49" fill="#58B57B"></path>
                <path d="M234.087799,223 C234.087799,223 233.474099,214.957221 235.491727,207.762797 C237.508169,200.567045 237.618351,196 237.618351,196 C237.618351,196 238.587476,203.532969 237.437084,210.026405 C236.287878,216.519841 234.087799,223 234.087799,223" id="Fill-50" fill="#58B57B"></path>
                <path d="M233,221 C233,221 227.106489,216.362191 224.127547,215.27057 C221.148605,214.180212 217,211 217,211 C217,211 222.121041,217.041141 224.979456,218.237506 C227.83787,219.435134 233,221 233,221" id="Fill-51" fill="#58B57B"></path>
                <path d="M234.058484,228 C234.058484,228 233.419373,223.589333 236.366637,217.34 C239.313901,211.090667 239.995925,208 239.995925,208 C239.995925,208 240.170646,216.485333 238.231858,219.669333 C236.293071,222.853333 234.058484,228 234.058484,228" id="Fill-52" fill="#58B57B"></path>
                <path d="M233,223.873519 C233,223.873519 229.86048,222.079608 226.833947,221.71539 C223.807414,221.352259 223,221 223,221 C223,221 224.52977,223.395142 228.263425,223.7985 C231.995811,224.202946 233,223.873519 233,223.873519" id="Fill-53" fill="#58B57B"></path>
                <path d="M236,232.760356 C235.260388,229.946648 234.307479,225.594131 233.325485,222.687039 C231.157895,216.267888 226,208 226,208 C229.149584,214.826523 231.450139,218.666103 233.034626,224.55337 C233.66205,226.886623 234.746537,230.125296 235.333795,232.242005 C235.429363,232.822612 235.904432,233.30848 236,232.760356" id="Fill-54" fill="#58B57B"></path>
                <polyline id="Fill-55" fill="#CFD9E2" points="243.576877 252 227.857232 252 223 225 249 225 243.576877 252"></polyline>
                <polyline id="Fill-56" fill="#D1A169" points="419 258.033034 444.157115 417 449 416.985465 429.09501 258 419 258.033034"></polyline>
                <polyline id="Fill-57" fill="#D1A169" points="244 258 211.476422 416.984158 205 417 230.498153 258.033005 244 258"></polyline>
                <polygon id="Fill-58" fill="#D1A169" points="192 261 465 261 465 249 192 249"></polygon>
                <polygon id="Fill-59" fill="#EBB576" points="179 257 478 257 478 249 179 249"></polygon>
                <polyline id="Fill-60" fill="#9FA7AE" points="394 245 383.5 245 373 177 380.983234 177 394 245"></polyline>
                <polyline id="Fill-61" fill="#CFD9E2" points="392 245 349.809422 245 339 177 381.190578 177 392 245"></polyline>
                <polygon id="Fill-62" fill="#CFD9E2" points="350 249 395 249 395 243 350 243"></polygon>
                <polygon id="Fill-63" fill="#9FA7AE" points="394 249 451 249 451 243 394 243"></polygon>
                <path d="M368.467349,214.848278 C369.639203,220.086619 368.812846,225.745945 366.622549,227.487174 C364.432252,229.228403 361.70695,226.392078 360.533806,221.152405 C359.360663,215.912732 360.185731,210.253406 362.376028,208.512177 C364.566325,206.77228 367.294206,209.608605 368.467349,214.848278" id="Fill-64" fill="#9FA7AE"></path>
                <path d="M304.894429,248 L299.105571,248 C296.713674,248 294.680171,246.2575 294.312687,243.894348 L292,229 L312,229 L309.687313,243.894348 C309.321127,246.2575 307.286326,248 304.894429,248" id="Fill-65" fill="#9FA7AE"></path>
                <path d="M309.580137,244.014041 C313.354856,244.141255 314.546873,241.090935 314.995222,238.475971 C315.291884,236.74444 315.05697,235.381832 314.298536,234.429137 C313.570977,233.510366 312.342716,232.983132 310.930552,232.983132 C308.699548,232.983132 306.883333,235.526008 306.883333,238.652657 C306.883333,241.28317 308.912983,243.389276 309.580137,244.014041 Z M309.805653,246 C309.586848,246 309.368044,245.991519 309.143869,245.973144 L308.863316,245.950528 L308.640484,245.7696 C308.491482,245.650867 305,242.771579 305,238.652657 C305,234.433377 307.66056,231 310.930552,231 C312.901138,231 314.656947,231.785903 315.745602,233.155579 C316.522829,234.13513 317.345696,235.916133 316.849023,238.827931 C316.061057,243.420373 313.509228,246 309.805653,246 L309.805653,246 Z" id="Fill-66" fill="#9FA7AE"></path>
                <polyline id="Fill-67" fill="#CFD9E2" points="289.111008 249 314.888992 249 319 245 285 245 289.111008 249"></polyline>
                <polygon id="Fill-68" fill="#B0B8BF" points="30 417 153 417 153 151 30 151"></polygon>
                <polygon id="Fill-69" fill="#CFDDF0" points="44 190 139 190 139 162 44 162"></polygon>
                <path d="M102.936,180 L80.0639996,180 C79.4761398,180 79,179.511977 79,178.909445 L79,174.089192 C79,173.488023 79.4761398,173 80.0639996,173 L102.936,173 C103.52386,173 104,173.488023 104,174.089192 L104,178.909445 C104,179.511977 103.52386,180 102.936,180" id="Fill-70" fill="#FFFFFE"></path>
                <polygon id="Fill-71" fill="#CFDDF0" points="44 226 139 226 139 198 44 198"></polygon>
                <path d="M102.936,216 L80.0639996,216 C79.4761398,216 79,215.512072 79,214.909657 L79,210.090343 C79,209.487928 79.4761398,209 80.0639996,209 L102.936,209 C103.52386,209 104,209.487928 104,210.090343 L104,214.909657 C104,215.512072 103.52386,216 102.936,216" id="Fill-72" fill="#FFFFFE"></path>
                <polygon id="Fill-73" fill="#CFDDF0" points="44 262 139 262 139 234 44 234"></polygon>
                <path d="M102.936,251 L80.0639996,251 C79.4761398,251 79,250.511977 79,249.909445 L79,245.090555 C79,244.488023 79.4761398,244 80.0639996,244 L102.936,244 C103.52386,244 104,244.488023 104,245.090555 L104,249.909445 C104,250.511977 103.52386,251 102.936,251" id="Fill-74" fill="#FFFFFE"></path>
                <polygon id="Fill-75" fill="#CFDDF0" points="44 407 139 407 139 270 44 270"></polygon>
                <path d="M102.936,287 L80.0639996,287 C79.4761398,287 79,286.51334 79,285.909445 L79,281.090555 C79,280.488023 79.4761398,280 80.0639996,280 L102.936,280 C103.52386,280 104,280.488023 104,281.090555 L104,285.909445 C104,286.51334 103.52386,287 102.936,287" id="Fill-76" fill="#FFFFFE"></path>
            </g>
        </g>
    </g>
</svg>
