<?xml version="1.0" encoding="UTF-8"?>
<svg width="388px" height="303px" viewBox="0 0 388 303" version="1.1" xmlns="http://www.w3.org/2000/svg" xmlns:xlink="http://www.w3.org/1999/xlink">
    <!-- Generator: Sketch 60.1 (88133) - https://sketch.com -->
    <title>forgotpass</title>
    <desc>Created with Sketch.</desc>
    <g id="Page-1" stroke="none" strokeWidth="1" fill="none" fillRule="evenodd">
        <g id="desktopChangePassword" transform="translate(-167.000000, -200.000000)" fillRule="nonzero">
            <g id="forgotpass" transform="translate(111.000000, 129.000000)">
                <g id="Artboard_1">
                    <g id="Shadow" transform="translate(56.000000, 350.000000)" fill="#F5F5F5">
                        <ellipse id="_Path_" cx="194" cy="12.238" rx="193.889" ry="11.323"></ellipse>
                    </g>
                    <g id="Login" transform="translate(100.000000, 71.000000)">
                        <g id="Group_14">
                            <polygon id="Path_22" fill="#1F4788" points="149.96 236.048 7.96 236.048 0.187 7.681 142.187 7.681"></polygon>
                            <g id="Group_12" transform="translate(7.000000, 0.000000)">
                                <polygon id="Path_23" fill="#BBCFEA" points="150.047 228.961 8.047 228.961 0.274 0.594 142.274 0.594"></polygon>
                                <polygon id="Path_24" fill="#FFFFFF" opacity="0.3" points="150.047 228.961 8.047 228.961 0.274 0.594 142.274 0.594"></polygon>
                            </g>
                            <g id="Group_13" transform="translate(24.000000, 9.000000)">
                                <ellipse id="Ellipse_1" fill="#002A4C" transform="translate(56.497046, 57.094132) rotate(-45.486233) translate(-56.497046, -57.094132) " cx="56.497046" cy="57.094132" rx="39.2644838" ry="40.6243274"></ellipse>
                                <path d="M89.469,57.089 C89.6735759,62.5306328 88.4861112,67.9344577 86.019,72.789 C80.588149,83.4569716 69.595462,90.1403116 57.625,90.052 C45.3950672,89.9827562 34.1277816,83.404902 28.055,72.789 C25.2793536,68.0074615 23.7274151,62.6144923 23.537,57.089 C23.1752111,48.4351037 26.3763722,40.0111422 32.394015,33.7814722 C38.4116578,27.5518022 46.7197665,24.0609731 55.381,24.123 C73.7220045,24.2500577 88.7283932,38.762514 89.469,57.089 Z" id="Path_25" fill="#FFFFFF"></path>
                                <path d="M86.019,72.792 C80.588149,83.4599716 69.595462,90.1433116 57.625,90.055 C45.3950672,89.9857562 34.1277816,83.407902 28.055,72.792 C36.5077524,67.0304189 46.5094818,63.968601 56.739,64.011 C67.1459124,64.0238392 77.3225181,67.0757782 86.019,72.792 L86.019,72.792 Z" id="Path_26" fill="#709BDF" opacity="0.6"></path>
                                <ellipse id="Ellipse_2" fill="#BBCFEA" opacity="0.6" transform="translate(56.117418, 45.810256) rotate(-45.486233) translate(-56.117418, -45.810256) " cx="56.117418" cy="45.810256" rx="14.4353396" ry="14.9352821"></ellipse>
                            </g>
                            <polygon id="Path_27" fill="#FFFFFF" points="128.524 146.261 37.94 146.261 37.327 128.261 127.912 128.261"></polygon>
                            <polygon id="Path_28" fill="#FFFFFF" points="129.62 178.434 39.035 178.434 38.422 160.434 129.007 160.434"></polygon>
                            <polygon id="Path_31" fill="#002A4C" points="114.667 203.639 55.7 203.639 55.3 191.922 114.263 191.922"></polygon>
                            <path d="M86.218,137.261 C86.2538625,138.125117 85.9340993,138.966191 85.3332231,139.58823 C84.7323469,140.210269 83.9028408,140.558942 83.038,140.553 C81.2083164,140.53746 79.7125741,139.089229 79.638,137.261 C79.6021283,136.396708 79.9220262,135.555476 80.5231217,134.933406 C81.1242172,134.311335 81.9539862,133.962783 82.819,133.969 C84.6485029,133.984565 86.1439449,135.43293 86.218,137.261 L86.218,137.261 Z" id="Path_32" fill="#263238"></path>
                            <path d="M72.045,137.261 C72.0808625,138.125117 71.7610993,138.966191 71.1602231,139.58823 C70.5593469,140.210269 69.7298408,140.558942 68.865,140.553 C67.0351091,140.537966 65.5390751,139.089453 65.465,137.261 C65.4291375,136.396883 65.7489007,135.555809 66.3497769,134.93377 C66.9506531,134.311731 67.7801592,133.963058 68.645,133.969 C70.4748909,133.984034 71.9709249,135.432547 72.045,137.261 Z" id="Path_33" fill="#263238"></path>
                            <path d="M57.872,137.261 C57.9078717,138.125292 57.5879738,138.966524 56.9868783,139.588594 C56.3857828,140.210665 55.5560138,140.559217 54.691,140.553 C52.8611091,140.537966 51.3650751,139.089453 51.291,137.261 C51.2551375,136.396883 51.5749007,135.555809 52.1757769,134.93377 C52.7766531,134.311731 53.6061592,133.963058 54.471,133.969 C56.3012789,133.983504 57.7979051,135.432164 57.872,137.261 L57.872,137.261 Z" id="Path_34" fill="#263238"></path>
                            <path d="M100.391,137.261 C100.426862,138.125117 100.107099,138.966191 99.5062231,139.58823 C98.9053469,140.210269 98.0758408,140.558942 97.211,140.553 C95.3811091,140.537966 93.8850751,139.089453 93.811,137.261 C93.7751375,136.396883 94.0949007,135.555809 94.6957769,134.93377 C95.2966531,134.311731 96.1261592,133.963058 96.991,133.969 C98.8208909,133.984034 100.316925,135.432547 100.391,137.261 L100.391,137.261 Z" id="Path_35" fill="#263238"></path>
                            <path d="M114.565,137.261 C114.600872,138.125292 114.280974,138.966524 113.679878,139.588594 C113.078783,140.210665 112.249014,140.559217 111.384,140.553 C109.554109,140.537966 108.058075,139.089453 107.984,137.261 C107.948138,136.396883 108.267901,135.555809 108.868777,134.93377 C109.469653,134.311731 110.299159,133.963058 111.164,133.969 C112.994072,133.98401 114.490406,135.432388 114.565,137.261 L114.565,137.261 Z" id="Path_36" fill="#263238"></path>
                        </g>
                    </g>
                    <g id="Character" transform="translate(239.000000, 73.000000)">
                        <g id="Group_19">
                            <path d="M94.91,47.28 C96.244,49.415 97.346,51.465 98.489,53.592 C99.628,55.698 100.659,57.864 101.669,60.048 C103.727779,64.483622 105.433079,69.0748924 106.769,73.779 C106.947,74.372 107.083,74.999 107.231,75.614 L107.45,76.54 L107.559,77.002 L107.688,77.765 C107.919459,79.4856379 107.813485,81.2348884 107.376,82.915 C106.689946,85.5329482 105.642904,88.0426857 104.265,90.372 C101.795691,94.6145434 98.811025,98.535318 95.379,102.045 L91.168,98.857 C93.2821583,94.9597944 95.1628078,90.9403736 96.8,86.82 C97.5233311,85.0075214 98.0353757,83.1177212 98.326,81.188 C98.4172143,80.5994487 98.38933,79.9985741 98.244,79.421 L97.844,78.199 C97.68,77.699 97.535,77.199 97.336,76.692 C95.8215682,72.5627901 94.0621085,68.5276199 92.067,64.608 C90.1,60.627 87.92,56.574 85.774,52.791 L94.91,47.28 Z" id="Path_37" fill="#FF8B7B"></path>
                            <path d="M92.236,97.425 L87.644,99.863 L92.923,106.043 C92.923,106.043 96.218,103.814 96.366,100.41 L92.236,97.425 Z" id="Path_38" fill="#FF8B7B"></path>
                            <polygon id="Path_39" fill="#FF8B7B" points="81.466 103.673 87.122 108.161 92.922 106.043 87.644 99.863"></polygon>
                            <path d="M32.91,56.28 C34.244,58.415 35.346,60.465 36.489,62.592 C37.628,64.698 38.659,66.864 39.669,69.048 C41.7277789,73.483622 43.4330792,78.0748924 44.769,82.779 C44.947,83.372 45.083,83.999 45.231,84.614 L45.45,85.54 L45.559,86.002 L45.688,86.765 C45.9194588,88.4856379 45.8134848,90.2348884 45.376,91.915 C44.6899457,94.5329482 43.6429036,97.0426857 42.265,99.372 C39.7956906,103.614543 36.811025,107.535318 33.379,111.045 L29.168,107.857 C31.2821583,103.959794 33.1628078,99.9403736 34.8,95.82 C35.5233311,94.0075214 36.0353757,92.1177212 36.326,90.188 C36.4172143,89.5994487 36.38933,88.9985741 36.244,88.421 L35.844,87.199 C35.68,86.699 35.535,86.199 35.336,85.692 C33.8215682,81.5627901 32.0621085,77.5276199 30.067,73.608 C28.1,69.627 25.92,65.574 23.774,61.791 L32.91,56.28 Z" id="Path_37-Copy" fill="#FF8B7B" transform="translate(34.790658, 83.662500) rotate(40.000000) translate(-34.790658, -83.662500) "></path>
                            <path d="M12.236,97.425 L7.644,99.863 L12.923,106.043 C12.923,106.043 16.218,103.814 16.366,100.41 L12.236,97.425 Z" id="Path_38-Copy" fill="#FF8B7B" transform="translate(12.005000, 101.734000) rotate(40.000000) translate(-12.005000, -101.734000) "></path>
                            <polygon id="Path_39-Copy" fill="#FF8B7B" transform="translate(7.194000, 100.360206) rotate(40.000000) translate(-7.194000, -100.360206) " points="1.466 100.021206 7.122 104.509206 12.922 102.391206 7.644 96.2112058"></polygon>
                            <path d="M62.151,14.565 C62.038,15.121 61.651,15.511 61.288,15.437 C60.925,15.363 60.722,14.853 60.835,14.297 C60.948,13.741 61.335,13.35 61.698,13.424 C62.061,13.498 62.264,14.009 62.151,14.565 Z" id="Path_40" fill="#263238"></path>
                            <path d="M61.7,15.522 C60.6912978,17.0864647 59.4722072,18.5047553 58.077,19.737 C58.7339749,20.442775 59.6689493,20.8226198 60.632,20.775 L61.7,15.522 Z" id="Path_41" fill="#FF5652"></path>
                            <path d="M64.814,11.891 C64.8979468,11.8913474 64.9788316,11.8594945 65.04,11.802 C65.1049924,11.7422796 65.1435289,11.6591373 65.1470941,11.5709453 C65.1506593,11.4827533 65.1189597,11.3967717 65.059,11.332 C64.3487182,10.5266862 63.291563,10.1165025 62.224,10.232 C62.0425745,10.2623757 61.9201244,10.4340745 61.9505001,10.6155 C61.9808757,10.7969255 62.1525745,10.9193756 62.334,10.889 L62.334,10.889 C63.1803678,10.8122265 64.0120224,11.147121 64.569,11.789 C64.6330053,11.8554792 64.7217278,11.8924167 64.814,11.891 Z" id="Path_45" fill="#263238"></path>
                            <path d="M77.591,24.683 C76.582,29.829 75.973,36.958 79.573,40.392 C79.573,40.392 78.166,45.612 68.605,45.612 C58.091,45.612 63.547,41.031 63.547,41.031 C67.917,39.674 67.879,34.696 66.88,30.698 L77.591,24.683 Z" id="Path_46" fill="#FF8B7B"></path>
                            <path d="M81.542,43.833 C82.478,42.507 82.442,38.318 81.442,37.579 C79.828,36.385 72.925,36.111 63.626,38.25 C64.626,42.308 62.483,44.435 62.483,44.435 L81.542,43.833 Z" id="Path_47" fill="#407BFF"></path>
                            <path d="M112.8,281.237 C112.226588,281.440163 111.595554,281.404125 111.049,281.137 C110.835465,280.939904 110.770772,280.628898 110.888,280.363 C110.951612,280.144323 111.108649,279.964957 111.317,279.873 C112.267,279.42 114.449,280.309 114.542,280.347 C114.601288,280.373214 114.640205,280.4312 114.642,280.496 C114.644133,280.561725 114.607268,280.622513 114.548,280.651 C113.987315,280.906636 113.401473,281.103034 112.8,281.237 L112.8,281.237 Z M111.656,280.113 C111.587022,280.126777 111.519898,280.148592 111.456,280.178 C111.333505,280.230159 111.240717,280.334316 111.203,280.462 C111.114,280.762 111.225,280.856 111.262,280.887 C111.64,281.209 113.044,280.912 114.034,280.516 C113.279436,280.206418 112.465402,280.068753 111.651,280.113 L111.656,280.113 Z" id="Path_48" fill="#407BFF"></path>
                            <path d="M114.508,280.668 C114.481453,280.674993 114.453547,280.674993 114.427,280.668 C113.627,280.436 111.927,279.227 111.909,278.43 C111.905335,278.17175 112.083762,277.946522 112.336,277.891 C112.579211,277.804929 112.847553,277.826382 113.074,277.95 C114.014,278.43 114.608,280.378 114.633,280.46 C114.650399,280.518675 114.634716,280.582172 114.592,280.626 C114.568408,280.647478 114.539337,280.662013 114.508,280.668 Z M112.518,278.182 C112.493305,278.187267 112.468931,278.193944 112.445,278.202 C112.239,278.274 112.244982,278.375 112.244982,278.418 C112.257,278.89 113.379,279.838 114.203,280.218 C113.984183,279.445512 113.539066,278.756243 112.925,278.239 C112.800493,278.172008 112.65612,278.151789 112.518,278.182 L112.518,278.182 Z" id="Path_49" fill="#407BFF"></path>
                            <path d="M60.864,282.417 C59.964,282.417 59.09,282.293 58.798,281.887 C58.6477622,281.665933 58.6533739,281.374127 58.812,281.159 C58.9270477,280.962269 59.1180118,280.821578 59.34,280.77 C60.51,280.451 62.968,281.852 63.073,281.912 C63.1329108,281.946897 63.1650275,282.015183 63.1537012,282.083585 C63.1423749,282.151987 63.0899616,282.206276 63.022,282.22 C62.3098,282.348561 61.587706,282.41448 60.864,282.417 Z M59.749,281.053 C59.6404673,281.051542 59.5322117,281.064317 59.427,281.091 C59.2906028,281.119823 59.1724324,281.204282 59.101,281.324 C58.983,281.531 59.026,281.634 59.068,281.693 C59.396,282.147 61.173,282.158 62.481,281.973 C61.638184,281.49302 60.7104748,281.180615 59.749,281.053 L59.749,281.053 Z" id="Path_50" fill="#407BFF"></path>
                            <path d="M62.989,282.223 C62.9655209,282.222925 62.9423316,282.21781 62.921,282.208 C62.072,281.827 60.39,280.308 60.521,279.508 C60.551,279.321 60.684,279.089 61.141,279.042 C61.47532,279.005221 61.8099159,279.108786 62.065,279.328 C62.7042689,280.094416 63.0862938,281.042481 63.157,282.038 C63.1628513,282.096853 63.1369477,282.154374 63.089,282.189 C63.0600576,282.210541 63.0250743,282.222435 62.989,282.223 L62.989,282.223 Z M61.273,279.371 C61.2395773,279.371 61.2061853,279.373024 61.173,279.377 C60.873,279.407 60.854,279.525 60.848,279.564 C60.771,280.041 61.914,281.237 62.78,281.757 C62.7013384,280.955518 62.3768625,280.197942 61.851,279.588 C61.690582,279.448707 61.4854524,279.371695 61.273,279.371 L61.273,279.371 Z" id="Path_51" fill="#407BFF"></path>
                            <polygon id="Path_52" fill="#FF8B7B" points="70.724 282.056 63.69 282.056 62.99 265.767 70.024 265.767"></polygon>
                            <polygon id="Path_53" fill="#FF8B7B" points="122.349 278.8 115.474 280.288 108.574 265.116 115.448 263.628"></polygon>
                            <path d="M114.814,279.6 L122.537,277.928 C122.818113,277.866978 123.103845,278.009636 123.224,278.271 L125.905,284.087 C126.034855,284.374712 126.026316,284.705955 125.88181,284.986594 C125.737303,285.267233 125.472627,285.466587 125.163,285.528 C122.457,286.065 121.113,286.191 117.716,286.928 C115.627,287.38 110.91,288.528 108.024,289.154 C105.202,289.765 104.144,287.007 105.27,286.493 C110.315,284.188 112.424,282.158 113.789,280.266 C114.03694,279.925294 114.401946,279.688129 114.814,279.6 L114.814,279.6 Z" id="Path_54" fill="#263238"></path>
                            <path d="M63.736,281.241998 L71.418,281.241998 C71.7059038,281.241248 71.9555355,281.440953 72.018,281.722 L73.408,287.974 C73.4780144,288.280091 73.4035811,288.601381 73.2060991,288.845502 C73.0086171,289.089622 72.7099641,289.229529 72.396,289.225 C69.625,289.178 65.621,289.016 62.139,289.016 C58.066,289.016 54.549,289.238 49.774,289.238 C46.887,289.238 46.085,286.319 47.294,286.054 C52.794,284.854 57.289,284.722 62.044,281.79 C62.5461221,281.453659 63.1320361,281.263895 63.736,281.241998 Z" id="Path_55" fill="#263238"></path>
                            <g id="Group_15" transform="translate(83.000000, 41.000000)">
                                <path d="M9.167,0.982 C15.759,2.494 21.194,19.323 21.194,19.323 L7.956,29.413 C4.52824253,25.7616094 2.10875924,21.281723 0.935,16.413 C-1.331,7.593 2.426,-0.563 9.167,0.982 Z" id="Path_56" fill="#407BFF"></path>
                                <path d="M9.167,0.982 C15.759,2.494 21.194,19.323 21.194,19.323 L7.956,29.413 C4.52824253,25.7616094 2.10875924,21.281723 0.935,16.413 C-1.331,7.593 2.426,-0.563 9.167,0.982 Z" id="Path_57" fill="#000000" opacity="0.4"></path>
                            </g>
                            <path d="M86.517,54.358 C90.098,57.901 91.266,64.358 91.543,69.965 L90.959,70.415 C87.5299671,66.7636314 85.1085206,62.2839381 83.932,57.415 C83.798,56.888 83.683,56.361 83.587,55.844 L86.517,54.358 Z" id="Path_59" fill="#000000" opacity="0.2"></path>
                            <g id="Group_16" transform="translate(49.000000, 40.000000)">
                                <path d="M1.508,9.035 C0.071,16.635 -0.829,32.235 3.345,63.135 L40.966,63.135 C41.225,57.36 37.597,29.188 43.166,1.977 C39.0067144,1.17575521 34.7999155,0.644644345 30.572,0.387 C25.2454695,0.0782801594 19.9055305,0.0782801594 14.579,0.387 C12.815,0.549 11.084,0.803 9.541,1.076 C5.47016785,1.80306633 2.27270842,4.97107076 1.508,9.035 Z" id="Path_60" fill="#407BFF"></path>
                                <path d="M1.508,9.035 C0.071,16.635 -0.829,32.235 3.345,63.135 L40.966,63.135 C41.225,57.36 37.597,29.188 43.166,1.977 C39.0067144,1.17575521 34.7999155,0.644644345 30.572,0.387 C25.2454695,0.0782801594 19.9055305,0.0782801594 14.579,0.387 C12.815,0.549 11.084,0.803 9.541,1.076 C5.47016785,1.80306633 2.27270842,4.97107076 1.508,9.035 Z" id="Path_61" fill="#000000" opacity="0.4"></path>
                            </g>
                            <path d="M56.265,60.266 L49.465,58.638 C49.255,62.755 49.236,67.859 49.542,74.168 C52.675,70.606 56.667,65.053 56.265,60.266 Z" id="Path_62" fill="#000000" opacity="0.2"></path>
                            <g id="Group_17" transform="translate(62.000000, 263.000000)" fill="#000000" opacity="0.2">
                                <polygon id="Path_63" points="0.991 2.772 1.351 11.172 8.388 11.172 8.028 2.772"></polygon>
                                <polygon id="Path_64" points="53.451 0.632 46.574 2.121 50.135 9.941 57.012 8.452"></polygon>
                            </g>
                            <path d="M80.934,17.155 C79.127,23.898 78.412,27.936 74.251,30.74 C67.992,34.957 60.199,30.117 59.951,22.97 C59.731,16.538 62.723,6.592 69.959,5.233 C73.2007991,4.60575443 76.5361293,5.70292573 78.7724641,8.13222715 C81.0087989,10.5615286 81.8268014,13.9760687 80.934,17.155 Z" id="Path_65" fill="#FF8B7B"></path>
                            <path d="M65.147,17.414 C64.814,16.514 63.255,9.541 64.718,7.733 C66.181,5.925 82.829,7.225 85.291,9.648 C89.375,13.667 86.542,17.254 82.07,21.882 C78.708,25.361 78.578,29.282 76.882,29.86 C73.91,30.869 69.302,29.921 68.382,26.748 C67.462,23.575 65.147,17.414 65.147,17.414 Z" id="Path_66" fill="#263238"></path>
                            <path d="M83.274,1.722 C77.389,-0.778 66.356,1.988 60.399,0.552 C60.2397966,5.13448618 63.4870277,9.13140682 68.005,9.914 C72.9490679,10.8550462 77.9722149,11.3181803 83.005,11.297 C89.548,11.031 88.271,3.85 83.274,1.722 Z" id="Path_67" fill="#263238"></path>
                            <path d="M84.194,9.861 C86.3401186,10.0724461 88.5015427,9.65773613 90.417,8.667 C91.521,11.326 85.472,12.056 84.194,9.861 Z" id="Path_68" fill="#263238"></path>
                            <path d="M68.354,17.691 C68.2259825,19.4209204 67.531508,21.0604567 66.378,22.356 C64.845,24.046 63.244,22.994 62.978,20.936 C62.733,19.084 63.236,15.974 65.111,15.042 C66.953,14.124 68.478,15.6 68.354,17.691 Z" id="Path_69" fill="#FF8B7B"></path>
                            <path d="M65.69,103.14 C65.69,103.14 73.673,156.894 78.055,177.031 C82.855,199.084 108.586,272.045 108.586,272.045 L121.177,269.319 C121.177,269.319 103.184,209.861 99.156,179.031 C96.063,155.349 89.966,103.14 89.966,103.14 L65.69,103.14 Z" id="Path_70" fill="#407BFF"></path>
                            <path d="M105.571,267.842 C105.517,267.853 107.918,272.395 107.918,272.395 L122.084,269.328 L120.89,265.069 L105.571,267.842 Z" id="Path_71" fill="#263238"></path>
                            <path d="M70.735,122.292 C79.965,124.102 78.989,158.522 77.878,176.226 C75.216,163.712 71.319,139.632 68.658,122.541 C69.3018711,122.224216 70.0344957,122.136386 70.735,122.292 L70.735,122.292 Z" id="Path_72" fill="#000000" opacity="0.3"></path>
                            <path d="M52.345,103.14 C52.345,103.14 51.376,155.73 52.145,177.18 C52.945,199.49 60.734,272.542 60.734,272.542 L72.649,272.542 C72.649,272.542 73.087,200.794 73.617,178.882 C74.195,154.995 77.079,103.14 77.079,103.14 L52.345,103.14 Z" id="Path_73" fill="#407BFF"></path>
                            <path d="M58.437,267.8 C58.382,267.8 59.109,272.747 59.109,272.747 L73.6,272.747 L73.992,268.332 L58.437,267.8 Z" id="Path_74" fill="#263238"></path>
                            <g id="Group_18" transform="translate(40.000000, 41.000000)">
                                <path d="M25.252,10.342 C28.624,19.431 8.81,30.137 8.81,30.137 L0.232,19.109 C0.232,19.109 5.954,7.718 12.977,2.584 C21.653,-3.759 22.684,3.423 25.252,10.342 Z" id="Path_75" fill="#407BFF"></path>
                                <path d="M25.252,10.342 C28.624,19.431 8.81,30.137 8.81,30.137 L0.232,19.109 C0.232,19.109 5.954,7.718 12.977,2.584 C21.653,-3.759 22.684,3.423 25.252,10.342 Z" id="Path_76" fill="#000000" opacity="0.4"></path>
                            </g>
                        </g>
                    </g>
                </g>
            </g>
        </g>
    </g>
</svg>
