<?xml version="1.0" encoding="UTF-8"?>
<svg width="388px" height="365px" viewBox="0 0 388 365" version="1.1" xmlns="http://www.w3.org/2000/svg" xmlns:xlink="http://www.w3.org/1999/xlink">
    <!-- Generator: Sketch 60.1 (88133) - https://sketch.com -->
    <title>forgotpass</title>
    <desc>Created with Sketch.</desc>
    <g id="Page-1" stroke="none" strokeWidth="1" fill="none" fillRule="evenodd">
        <g id="Desktop-forgot-password" transform="translate(-167.000000, -138.000000)" fillRule="nonzero">
            <g id="forgotpass" transform="translate(111.000000, 129.000000)">
                <g id="Artboard_1">
                    <g id="Shadow" transform="translate(56.000000, 350.000000)" fill="#F5F5F5">
                        <ellipse id="_Path_" cx="194" cy="12.238" rx="193.889" ry="11.323"></ellipse>
                    </g>
                    <g id="Login" transform="translate(100.000000, 71.000000)">
                        <g id="Group_14">
                            <polygon id="Path_22" fill="#1F4788" points="149.96 236.048 7.96 236.048 0.187 7.681 142.187 7.681"></polygon>
                            <g id="Group_12" transform="translate(7.000000, 0.000000)">
                                <polygon id="Path_23" fill="#BBCFEA" points="150.047 228.961 8.047 228.961 0.274 0.594 142.274 0.594"></polygon>
                                <polygon id="Path_24" fill="#FFFFFF" opacity="0.3" points="150.047 228.961 8.047 228.961 0.274 0.594 142.274 0.594"></polygon>
                            </g>
                            <g id="Group_13" transform="translate(24.000000, 9.000000)">
                                <ellipse id="Ellipse_1" fill="#002A4C" transform="translate(56.497046, 57.094132) rotate(-45.486233) translate(-56.497046, -57.094132) " cx="56.497046" cy="57.094132" rx="39.2644838" ry="40.6243274"></ellipse>
                                <path d="M89.469,57.089 C89.6735759,62.5306328 88.4861112,67.9344577 86.019,72.789 C80.588149,83.4569716 69.595462,90.1403116 57.625,90.052 C45.3950672,89.9827562 34.1277816,83.404902 28.055,72.789 C25.2793536,68.0074615 23.7274151,62.6144923 23.537,57.089 C23.1752111,48.4351037 26.3763722,40.0111422 32.394015,33.7814722 C38.4116578,27.5518022 46.7197665,24.0609731 55.381,24.123 C73.7220045,24.2500577 88.7283932,38.762514 89.469,57.089 Z" id="Path_25" fill="#FFFFFF"></path>
                                <path d="M86.019,72.792 C80.588149,83.4599716 69.595462,90.1433116 57.625,90.055 C45.3950672,89.9857562 34.1277816,83.407902 28.055,72.792 C36.5077524,67.0304189 46.5094818,63.968601 56.739,64.011 C67.1459124,64.0238392 77.3225181,67.0757782 86.019,72.792 L86.019,72.792 Z" id="Path_26" fill="#709BDF" opacity="0.6"></path>
                                <ellipse id="Ellipse_2" fill="#BBCFEA" opacity="0.6" transform="translate(56.117418, 45.810256) rotate(-45.486233) translate(-56.117418, -45.810256) " cx="56.117418" cy="45.810256" rx="14.4353396" ry="14.9352821"></ellipse>
                            </g>
                            <polygon id="Path_27" fill="#FFFFFF" points="128.524 146.261 37.94 146.261 37.327 128.261 127.912 128.261"></polygon>
                            <polygon id="Path_28" fill="#FFFFFF" points="129.62 178.434 39.035 178.434 38.422 160.434 129.007 160.434"></polygon>
                            <path d="M94.658,162.908 L72.83,165.876 C72.4085156,165.925702 72.0268468,166.148907 71.7768743,166.491884 C71.5269017,166.834861 71.4312696,167.266539 71.513,167.683 L74.379,182.311 C74.5728746,183.200438 75.415289,183.793473 76.318,183.676 L98.146,180.707 C98.56788,180.658163 98.9501281,180.435165 99.2002729,180.091952 C99.4504178,179.748739 99.5456748,179.316572 99.463,178.9 L96.6,164.272 C96.4043323,163.382522 95.5611031,162.790264 94.658,162.908 L94.658,162.908 Z M88.386,177.727 L84.434,178.265 L84.034,173.543 C83.2000293,173.182721 82.5945016,172.437944 82.412,171.548 C82.2760712,170.866799 82.4314647,170.159799 82.8405125,169.598379 C83.2495602,169.03696 83.8749191,168.672374 84.565,168.593 C86.0393997,168.401893 87.4144706,169.371918 87.729,170.825 C87.9067475,171.682232 87.6104339,172.568882 86.953,173.147 L88.386,177.727 Z" id="Path_29" fill="#EC1C23"></path>
                            <path d="M92.5,162.124 L92.5,162.124 C91.6988231,162.229693 90.9506154,161.702902 90.78,160.913 L90.499,159.481 C89.6725561,155.445486 85.9898472,152.642542 81.88,152.921 C79.8538252,153.047601 77.9808992,154.042599 76.7417766,155.6507 C75.5026541,157.258801 75.0179392,159.323486 75.412,161.315 L75.735,162.959 C75.8081234,163.328287 75.7233731,163.711324 75.5012858,164.015293 C75.2791985,164.319262 74.9400416,164.516423 74.566,164.559 L74.566,164.559 C73.7648898,164.665765 73.0161981,164.139069 72.846,163.349 L72.573,161.949 C72.0189837,159.328546 72.5560822,156.595473 74.0605357,154.379546 C75.5649892,152.163618 77.9070307,150.655971 80.547,150.204 C86.4431127,149.210223 92.0792975,153.025656 93.347,158.869 L93.669,160.513 C93.7452704,160.883886 93.662036,161.269749 93.4396546,161.576213 C93.2172733,161.882677 92.8762522,162.081481 92.5,162.124 Z" id="Path_30" fill="#EC1C23"></path>
                            <polygon id="Path_31" fill="#002A4C" points="114.667 203.639 55.7 203.639 55.3 191.922 114.263 191.922"></polygon>
                            <path d="M86.218,137.261 C86.2538625,138.125117 85.9340993,138.966191 85.3332231,139.58823 C84.7323469,140.210269 83.9028408,140.558942 83.038,140.553 C81.2083164,140.53746 79.7125741,139.089229 79.638,137.261 C79.6021283,136.396708 79.9220262,135.555476 80.5231217,134.933406 C81.1242172,134.311335 81.9539862,133.962783 82.819,133.969 C84.6485029,133.984565 86.1439449,135.43293 86.218,137.261 L86.218,137.261 Z" id="Path_32" fill="#263238"></path>
                            <path d="M72.045,137.261 C72.0808625,138.125117 71.7610993,138.966191 71.1602231,139.58823 C70.5593469,140.210269 69.7298408,140.558942 68.865,140.553 C67.0351091,140.537966 65.5390751,139.089453 65.465,137.261 C65.4291375,136.396883 65.7489007,135.555809 66.3497769,134.93377 C66.9506531,134.311731 67.7801592,133.963058 68.645,133.969 C70.4748909,133.984034 71.9709249,135.432547 72.045,137.261 Z" id="Path_33" fill="#263238"></path>
                            <path d="M57.872,137.261 C57.9078717,138.125292 57.5879738,138.966524 56.9868783,139.588594 C56.3857828,140.210665 55.5560138,140.559217 54.691,140.553 C52.8611091,140.537966 51.3650751,139.089453 51.291,137.261 C51.2551375,136.396883 51.5749007,135.555809 52.1757769,134.93377 C52.7766531,134.311731 53.6061592,133.963058 54.471,133.969 C56.3012789,133.983504 57.7979051,135.432164 57.872,137.261 L57.872,137.261 Z" id="Path_34" fill="#263238"></path>
                            <path d="M100.391,137.261 C100.426862,138.125117 100.107099,138.966191 99.5062231,139.58823 C98.9053469,140.210269 98.0758408,140.558942 97.211,140.553 C95.3811091,140.537966 93.8850751,139.089453 93.811,137.261 C93.7751375,136.396883 94.0949007,135.555809 94.6957769,134.93377 C95.2966531,134.311731 96.1261592,133.963058 96.991,133.969 C98.8208909,133.984034 100.316925,135.432547 100.391,137.261 L100.391,137.261 Z" id="Path_35" fill="#263238"></path>
                            <path d="M114.565,137.261 C114.600872,138.125292 114.280974,138.966524 113.679878,139.588594 C113.078783,140.210665 112.249014,140.559217 111.384,140.553 C109.554109,140.537966 108.058075,139.089453 107.984,137.261 C107.948138,136.396883 108.267901,135.555809 108.868777,134.93377 C109.469653,134.311731 110.299159,133.963058 111.164,133.969 C112.994072,133.98401 114.490406,135.432388 114.565,137.261 L114.565,137.261 Z" id="Path_36" fill="#263238"></path>
                        </g>
                    </g>
                    <g id="Character" transform="translate(276.000000, 73.000000)">
                        <g id="Group_19">
                            <path d="M57.91,47.28 C59.244,49.415 60.346,51.465 61.489,53.592 C62.628,55.698 63.659,57.864 64.669,60.048 C66.7277789,64.483622 68.4330792,69.0748924 69.769,73.779 C69.947,74.372 70.083,74.999 70.231,75.614 L70.45,76.54 L70.559,77.002 L70.688,77.765 C70.9194588,79.4856379 70.8134848,81.2348884 70.376,82.915 C69.6899457,85.5329482 68.6429036,88.0426857 67.265,90.372 C64.7956906,94.6145434 61.811025,98.535318 58.379,102.045 L54.168,98.857 C56.2821583,94.9597944 58.1628078,90.9403736 59.8,86.82 C60.5233311,85.0075214 61.0353757,83.1177212 61.326,81.188 C61.4172143,80.5994487 61.38933,79.9985741 61.244,79.421 L60.844,78.199 C60.68,77.699 60.535,77.199 60.336,76.692 C58.8215682,72.5627901 57.0621085,68.5276199 55.067,64.608 C53.1,60.627 50.92,56.574 48.774,52.791 L57.91,47.28 Z" id="Path_37" fill="#FF8B7B"></path>
                            <path d="M55.236,97.425 L50.644,99.863 L55.923,106.043 C55.923,106.043 59.218,103.814 59.366,100.41 L55.236,97.425 Z" id="Path_38" fill="#FF8B7B"></path>
                            <polygon id="Path_39" fill="#FF8B7B" points="44.466 103.673 50.122 108.161 55.922 106.043 50.644 99.863"></polygon>
                            <path d="M25.151,14.565 C25.038,15.121 24.651,15.511 24.288,15.437 C23.925,15.363 23.722,14.853 23.835,14.297 C23.948,13.741 24.335,13.35 24.698,13.424 C25.061,13.498 25.264,14.009 25.151,14.565 Z" id="Path_40" fill="#263238"></path>
                            <path d="M24.7,15.522 C23.6912978,17.0864647 22.4722072,18.5047553 21.077,19.737 C21.7339749,20.442775 22.6689493,20.8226198 23.632,20.775 L24.7,15.522 Z" id="Path_41" fill="#FF5652"></path>
                            <path d="M22.9,35.138 L22.943,28.584 L31.623,29.633 C31.623,29.633 31.474,35.269 26.623,36.926 L22.9,35.138 Z" id="Path_42" fill="#FF8B7B"></path>
                            <polygon id="Path_43" fill="#FF8B7B" points="25.4 23.864 31.512 25.62 31.629 29.633 22.949 28.584"></polygon>
                            <path d="M31.51,25.62 L25.4,23.86 L24.21,26.14 C24.343144,29.8032016 26.5231376,33.0809224 29.85,34.62 C30.8980218,33.1564764 31.5115543,31.4268001 31.62,29.63 L31.51,25.62 Z" id="Path_44" fill="#000000" opacity="0.2"></path>
                            <path d="M27.814,11.891 C27.8979468,11.8913474 27.9788316,11.8594945 28.04,11.802 C28.1049924,11.7422796 28.1435289,11.6591373 28.1470941,11.5709453 C28.1506593,11.4827533 28.1189597,11.3967717 28.059,11.332 C27.3487182,10.5266862 26.291563,10.1165025 25.224,10.232 C25.0425745,10.2623757 24.9201244,10.4340745 24.9505001,10.6155 C24.9808757,10.7969255 25.1525745,10.9193756 25.334,10.889 L25.334,10.889 C26.1803678,10.8122265 27.0120224,11.147121 27.569,11.789 C27.6330053,11.8554792 27.7217278,11.8924167 27.814,11.891 Z" id="Path_45" fill="#263238"></path>
                            <path d="M40.591,24.683 C39.582,29.829 38.973,36.958 42.573,40.392 C42.573,40.392 41.166,45.612 31.605,45.612 C21.091,45.612 26.547,41.031 26.547,41.031 C30.917,39.674 30.879,34.696 29.88,30.698 L40.591,24.683 Z" id="Path_46" fill="#FF8B7B"></path>
                            <path d="M44.542,43.833 C45.478,42.507 45.442,38.318 44.442,37.579 C42.828,36.385 35.925,36.111 26.626,38.25 C27.626,42.308 25.483,44.435 25.483,44.435 L44.542,43.833 Z" id="Path_47" fill="#407BFF"></path>
                            <path d="M75.8,281.237 C75.2265876,281.440163 74.5955542,281.404125 74.049,281.137 C73.8354648,280.939904 73.7707723,280.628898 73.888,280.363 C73.9516124,280.144323 74.1086491,279.964957 74.317,279.873 C75.267,279.42 77.449,280.309 77.542,280.347 C77.6012885,280.373214 77.6402052,280.4312 77.642,280.496 C77.6441333,280.561725 77.6072683,280.622513 77.548,280.651 C76.9873154,280.906636 76.401473,281.103034 75.8,281.237 L75.8,281.237 Z M74.656,280.113 C74.5870223,280.126777 74.5198976,280.148592 74.456,280.178 C74.3335047,280.230159 74.2407169,280.334316 74.203,280.462 C74.114,280.762 74.225,280.856 74.262,280.887 C74.64,281.209 76.044,280.912 77.034,280.516 C76.2794361,280.206418 75.4654015,280.068753 74.651,280.113 L74.656,280.113 Z" id="Path_48" fill="#407BFF"></path>
                            <path d="M77.508,280.668 C77.4814528,280.674993 77.4535472,280.674993 77.427,280.668 C76.627,280.436 74.927,279.227 74.909,278.43 C74.9053354,278.17175 75.0837623,277.946522 75.336,277.891 C75.5792108,277.804929 75.847553,277.826382 76.074,277.95 C77.014,278.43 77.608,280.378 77.633,280.46 C77.6503985,280.518675 77.6347156,280.582172 77.592,280.626 C77.5684084,280.647478 77.5393371,280.662013 77.508,280.668 Z M75.518,278.182 C75.4933046,278.187267 75.4689314,278.193944 75.445,278.202 C75.239,278.274 75.2449818,278.375 75.2449818,278.418 C75.257,278.89 76.379,279.838 77.203,280.218 C76.9841829,279.445512 76.5390662,278.756243 75.925,278.239 C75.8004927,278.172008 75.6561205,278.151789 75.518,278.182 L75.518,278.182 Z" id="Path_49" fill="#407BFF"></path>
                            <path d="M23.864,282.417 C22.964,282.417 22.09,282.293 21.798,281.887 C21.6477622,281.665933 21.6533739,281.374127 21.812,281.159 C21.9270477,280.962269 22.1180118,280.821578 22.34,280.77 C23.51,280.451 25.968,281.852 26.073,281.912 C26.1329108,281.946897 26.1650275,282.015183 26.1537012,282.083585 C26.1423749,282.151987 26.0899616,282.206276 26.022,282.22 C25.3098,282.348561 24.587706,282.41448 23.864,282.417 Z M22.749,281.053 C22.6404673,281.051542 22.5322117,281.064317 22.427,281.091 C22.2906028,281.119823 22.1724324,281.204282 22.101,281.324 C21.983,281.531 22.026,281.634 22.068,281.693 C22.396,282.147 24.173,282.158 25.481,281.973 C24.638184,281.49302 23.7104748,281.180615 22.749,281.053 L22.749,281.053 Z" id="Path_50" fill="#407BFF"></path>
                            <path d="M25.989,282.223 C25.9655209,282.222925 25.9423316,282.21781 25.921,282.208 C25.072,281.827 23.39,280.308 23.521,279.508 C23.551,279.321 23.684,279.089 24.141,279.042 C24.47532,279.005221 24.8099159,279.108786 25.065,279.328 C25.7042689,280.094416 26.0862938,281.042481 26.157,282.038 C26.1628513,282.096853 26.1369477,282.154374 26.089,282.189 C26.0600576,282.210541 26.0250743,282.222435 25.989,282.223 L25.989,282.223 Z M24.273,279.371 C24.2395773,279.371 24.2061853,279.373024 24.173,279.377 C23.873,279.407 23.854,279.525 23.848,279.564 C23.771,280.041 24.914,281.237 25.78,281.757 C25.7013384,280.955518 25.3768625,280.197942 24.851,279.588 C24.690582,279.448707 24.4854524,279.371695 24.273,279.371 L24.273,279.371 Z" id="Path_51" fill="#407BFF"></path>
                            <polygon id="Path_52" fill="#FF8B7B" points="33.724 282.056 26.69 282.056 25.99 265.767 33.024 265.767"></polygon>
                            <polygon id="Path_53" fill="#FF8B7B" points="85.349 278.8 78.474 280.288 71.574 265.116 78.448 263.628"></polygon>
                            <path d="M77.814,279.6 L85.537,277.928 C85.8181132,277.866978 86.103845,278.009636 86.224,278.271 L88.905,284.087 C89.0348555,284.374712 89.0263165,284.705955 88.8818097,284.986594 C88.737303,285.267233 88.4726271,285.466587 88.163,285.528 C85.457,286.065 84.113,286.191 80.716,286.928 C78.627,287.38 73.91,288.528 71.024,289.154 C68.202,289.765 67.144,287.007 68.27,286.493 C73.315,284.188 75.424,282.158 76.789,280.266 C77.03694,279.925294 77.4019464,279.688129 77.814,279.6 L77.814,279.6 Z" id="Path_54" fill="#263238"></path>
                            <path d="M26.736,281.241998 L34.418,281.241998 C34.7059038,281.241248 34.9555355,281.440953 35.018,281.722 L36.408,287.974 C36.4780144,288.280091 36.4035811,288.601381 36.2060991,288.845502 C36.0086171,289.089622 35.7099641,289.229529 35.396,289.225 C32.625,289.178 28.621,289.016 25.139,289.016 C21.066,289.016 17.549,289.238 12.774,289.238 C9.887,289.238 9.085,286.319 10.294,286.054 C15.794,284.854 20.289,284.722 25.044,281.79 C25.5461221,281.453659 26.1320361,281.263895 26.736,281.241998 Z" id="Path_55" fill="#263238"></path>
                            <g id="Group_15" transform="translate(46.000000, 41.000000)">
                                <path d="M9.167,0.982 C15.759,2.494 21.194,19.323 21.194,19.323 L7.956,29.413 C4.52824253,25.7616094 2.10875924,21.281723 0.935,16.413 C-1.331,7.593 2.426,-0.563 9.167,0.982 Z" id="Path_56" fill="#407BFF"></path>
                                <path d="M9.167,0.982 C15.759,2.494 21.194,19.323 21.194,19.323 L7.956,29.413 C4.52824253,25.7616094 2.10875924,21.281723 0.935,16.413 C-1.331,7.593 2.426,-0.563 9.167,0.982 Z" id="Path_57" fill="#000000" opacity="0.4"></path>
                            </g>
                            <path d="M20.5,62.067 C18.854,63.842 17.214,65.421 15.515,67.047 C14.6723333,67.8543333 13.8103333,68.6463333 12.929,69.423 L11.601,70.586 L11.266,70.875 C11.104,71.014 10.907,71.175 10.696,71.341 C10.1059129,71.8057392 9.45611023,72.1891631 8.764,72.481 C7.99406179,72.8058471 7.16764521,72.9757518 6.332,72.981105 C5.61515273,72.9852759 4.90352713,72.8588777 4.232,72.608 C3.48535649,72.3252431 2.80465804,71.8923189 2.232,71.336 C1.49802929,70.6200992 0.958413632,69.7291139 0.664,68.747 C0.517247586,68.2626669 0.421724523,67.7642712 0.379,67.26 C0.330216785,66.664669 0.336912289,66.0660909 0.399,65.472 C0.446,64.992 0.511,64.572 0.585,64.185 C0.859125969,62.8113601 1.24747518,61.463009 1.746,60.154 C2.20037937,58.9226348 2.71909326,57.7159741 3.3,56.539 C3.934,55.266 4.548,54.339 5.158,53.276 C7.63622202,49.2180915 10.4643127,45.3845094 13.61,41.819 C16.7230552,38.2730615 20.1547609,35.0201045 23.862,32.101 L27.542,35.889 C24.957,39.347 22.415,43.055 20.065,46.71 C17.727018,50.3384467 15.5904552,54.092788 13.665,57.956 C13.233,58.898 12.701,59.93 12.401,60.718 C12.0420347,61.6012422 11.7289506,62.5024438 11.463,63.418 C11.2168103,64.2461991 11.027042,65.0901335 10.895,65.944 C10.876664,66.0766263 10.8656473,66.2101619 10.862,66.344 C10.862,66.422 10.88,66.464 10.87,66.252 C10.8528907,66.0293557 10.8095919,65.809505 10.741,65.597 C10.5216202,64.8888517 10.1242972,64.2487967 9.587,63.738 C8.69414384,62.8723331 7.49961192,62.3878502 6.256,62.387 C5.7033499,62.3830289 5.1553039,62.4876775 4.643,62.695 C4.47265505,62.7661558 4.30728273,62.8486749 4.148,62.942 L4.532,62.592 L5.732,61.492 L8.123,59.253 C9.706,57.762 11.297,56.172 12.801,54.697 L20.5,62.067 Z" id="Path_58" fill="#FF8B7B"></path>
                            <path d="M49.517,54.358 C53.098,57.901 54.266,64.358 54.543,69.965 L53.959,70.415 C50.5299671,66.7636314 48.1085206,62.2839381 46.932,57.415 C46.798,56.888 46.683,56.361 46.587,55.844 L49.517,54.358 Z" id="Path_59" fill="#000000" opacity="0.2"></path>
                            <g id="Group_16" transform="translate(12.000000, 40.000000)">
                                <path d="M1.508,9.035 C0.071,16.635 -0.829,32.235 3.345,63.135 L40.966,63.135 C41.225,57.36 37.597,29.188 43.166,1.977 C39.0067144,1.17575521 34.7999155,0.644644345 30.572,0.387 C25.2454695,0.0782801594 19.9055305,0.0782801594 14.579,0.387 C12.815,0.549 11.084,0.803 9.541,1.076 C5.47016785,1.80306633 2.27270842,4.97107076 1.508,9.035 Z" id="Path_60" fill="#407BFF"></path>
                                <path d="M1.508,9.035 C0.071,16.635 -0.829,32.235 3.345,63.135 L40.966,63.135 C41.225,57.36 37.597,29.188 43.166,1.977 C39.0067144,1.17575521 34.7999155,0.644644345 30.572,0.387 C25.2454695,0.0782801594 19.9055305,0.0782801594 14.579,0.387 C12.815,0.549 11.084,0.803 9.541,1.076 C5.47016785,1.80306633 2.27270842,4.97107076 1.508,9.035 Z" id="Path_61" fill="#000000" opacity="0.4"></path>
                            </g>
                            <path d="M19.265,60.266 L12.465,58.638 C12.255,62.755 12.236,67.859 12.542,74.168 C15.675,70.606 19.667,65.053 19.265,60.266 Z" id="Path_62" fill="#000000" opacity="0.2"></path>
                            <g id="Group_17" transform="translate(25.000000, 263.000000)" fill="#000000" opacity="0.2">
                                <polygon id="Path_63" points="0.991 2.772 1.351 11.172 8.388 11.172 8.028 2.772"></polygon>
                                <polygon id="Path_64" points="53.451 0.632 46.574 2.121 50.135 9.941 57.012 8.452"></polygon>
                            </g>
                            <path d="M43.934,17.155 C42.127,23.898 41.412,27.936 37.251,30.74 C30.992,34.957 23.199,30.117 22.951,22.97 C22.731,16.538 25.723,6.592 32.959,5.233 C36.2007991,4.60575443 39.5361293,5.70292573 41.7724641,8.13222715 C44.0087989,10.5615286 44.8268014,13.9760687 43.934,17.155 Z" id="Path_65" fill="#FF8B7B"></path>
                            <path d="M28.147,17.414 C27.814,16.514 26.255,9.541 27.718,7.733 C29.181,5.925 45.829,7.225 48.291,9.648 C52.375,13.667 49.542,17.254 45.07,21.882 C41.708,25.361 41.578,29.282 39.882,29.86 C36.91,30.869 32.302,29.921 31.382,26.748 C30.462,23.575 28.147,17.414 28.147,17.414 Z" id="Path_66" fill="#263238"></path>
                            <path d="M46.274,1.722 C40.389,-0.778 29.356,1.988 23.399,0.552 C23.2397966,5.13448618 26.4870277,9.13140682 31.005,9.914 C35.9490679,10.8550462 40.9722149,11.3181803 46.005,11.297 C52.548,11.031 51.271,3.85 46.274,1.722 Z" id="Path_67" fill="#263238"></path>
                            <path d="M47.194,9.861 C49.3401186,10.0724461 51.5015427,9.65773613 53.417,8.667 C54.521,11.326 48.472,12.056 47.194,9.861 Z" id="Path_68" fill="#263238"></path>
                            <path d="M31.354,17.691 C31.2259825,19.4209204 30.531508,21.0604567 29.378,22.356 C27.845,24.046 26.244,22.994 25.978,20.936 C25.733,19.084 26.236,15.974 28.111,15.042 C29.953,14.124 31.478,15.6 31.354,17.691 Z" id="Path_69" fill="#FF8B7B"></path>
                            <path d="M28.69,103.14 C28.69,103.14 36.673,156.894 41.055,177.031 C45.855,199.084 71.586,272.045 71.586,272.045 L84.177,269.319 C84.177,269.319 66.184,209.861 62.156,179.031 C59.063,155.349 52.966,103.14 52.966,103.14 L28.69,103.14 Z" id="Path_70" fill="#407BFF"></path>
                            <path d="M68.571,267.842 C68.517,267.853 70.918,272.395 70.918,272.395 L85.084,269.328 L83.89,265.069 L68.571,267.842 Z" id="Path_71" fill="#263238"></path>
                            <path d="M33.735,122.292 C42.965,124.102 41.989,158.522 40.878,176.226 C38.216,163.712 34.319,139.632 31.658,122.541 C32.3018711,122.224216 33.0344957,122.136386 33.735,122.292 L33.735,122.292 Z" id="Path_72" fill="#000000" opacity="0.3"></path>
                            <path d="M15.345,103.14 C15.345,103.14 14.376,155.73 15.145,177.18 C15.945,199.49 23.734,272.542 23.734,272.542 L35.649,272.542 C35.649,272.542 36.087,200.794 36.617,178.882 C37.195,154.995 40.079,103.14 40.079,103.14 L15.345,103.14 Z" id="Path_73" fill="#407BFF"></path>
                            <path d="M21.437,267.8 C21.382,267.8 22.109,272.747 22.109,272.747 L36.6,272.747 L36.992,268.332 L21.437,267.8 Z" id="Path_74" fill="#263238"></path>
                            <g id="Group_18" transform="translate(3.000000, 41.000000)">
                                <path d="M25.252,10.342 C28.624,19.431 8.81,30.137 8.81,30.137 L0.232,19.109 C0.232,19.109 5.954,7.718 12.977,2.584 C21.653,-3.759 22.684,3.423 25.252,10.342 Z" id="Path_75" fill="#407BFF"></path>
                                <path d="M25.252,10.342 C28.624,19.431 8.81,30.137 8.81,30.137 L0.232,19.109 C0.232,19.109 5.954,7.718 12.977,2.584 C21.653,-3.759 22.684,3.423 25.252,10.342 Z" id="Path_76" fill="#000000" opacity="0.4"></path>
                            </g>
                        </g>
                    </g>
                    <g id="Thinking" transform="translate(328.000000, 9.000000)">
                        <g id="Group_20">
                            <ellipse id="Ellipse_3" fill="#4B77BE" cx="53.875" cy="23.333" rx="36.087" ry="23"></ellipse>
                            <path d="M40.846,34.91 C35.9386184,34.8917196 31.75261,31.3529233 30.918,26.517 C30.0668455,21.2389652 33.4277498,16.1969549 38.627,14.952 L38.627,14.952 C42.8298044,13.9807656 47.1839692,15.7975824 49.45,19.468 L72.617,14.687 C74.4681237,14.2830163 76.3182008,15.3723222 76.863,17.187 C77.106786,18.1135333 76.9588426,19.0995474 76.4538753,19.9137362 C75.948908,20.7279251 75.1313537,21.2986405 74.193,21.492 L73.585,21.618 C73.4065722,21.652887 73.2531768,21.7659152 73.167,21.926 C73.079007,22.0852676 73.0661876,22.2753602 73.132,22.445 L73.54,23.507 C73.8223733,24.2127814 73.5639053,25.0196547 72.924,25.43 C72.4262986,25.7416781 72.0956592,26.2611493 72.024,26.844 C71.9711501,27.5195448 71.4848145,28.082073 70.824,28.232 L70.348,28.332 C69.680804,28.4555171 69.0106619,28.1315814 68.693,27.532 C68.2719366,26.8112914 67.4379701,26.4395973 66.6205015,26.6082993 C65.8030329,26.7770013 65.1843475,27.4484808 65.083,28.277 C65.0280682,28.9512612 64.5424594,29.5121393 63.883,29.663 L63.416,29.763 C62.7491809,29.8857106 62.0797762,29.5619357 61.762,28.963 C61.4636526,28.4552861 60.9522414,28.1092018 60.37,28.021 C59.6193317,27.8980194 59.0616885,27.259394 59.041,26.499 L58.995,25.362 C58.9904172,25.1801918 58.9036196,25.0102743 58.759,24.9 C58.6163381,24.7864307 58.4302929,24.7427633 58.252,24.781 L50.863,26.3 C50.2398336,30.4905853 47.0627795,33.8442534 42.912,34.693 C42.2324914,34.8353181 41.5402496,34.9080269 40.846,34.91 Z M38.846,15.927 C34.1618412,17.0489276 31.1343408,21.5919222 31.902,26.347 C32.6657437,30.8153188 36.6017369,34.0401326 41.132991,33.9100789 C45.6642451,33.7800251 49.4087973,30.3347682 49.915,25.83 L49.956,25.47 L58.041,23.801 C58.5065516,23.7045367 58.9909682,23.8177149 59.3655829,24.1104729 C59.7401976,24.4032309 59.9670919,24.8459359 59.986,25.321 L60.032,26.458 C60.0359351,26.7372606 60.2341962,26.9759236 60.508,27.031 C61.3925528,27.1603759 62.1695942,27.6866281 62.618,28.46 C62.7241962,28.6824873 62.9615897,28.8112773 63.206,28.779 L63.673,28.679 C63.910261,28.611693 64.0773246,28.3994334 64.087,28.153 C64.239407,26.897269 65.1766871,25.8791262 66.4155472,25.6235603 C67.6544072,25.3679945 68.9180909,25.932098 69.555,27.025 C69.6596882,27.2483235 69.897752,27.3772917 70.142,27.343 L70.619,27.243 C70.8553492,27.1768827 71.021637,26.9652804 71.03,26.72 C71.1319664,25.8329814 71.6345556,25.0415139 72.394,24.572 C72.6238831,24.4134946 72.7114625,24.1157247 72.604,23.858 L72.2,22.8 C72.0292316,22.3561484 72.0623784,21.859645 72.2906319,21.4424323 C72.5188854,21.0252195 72.9191287,20.7295515 73.385,20.634 L73.993,20.508 C74.6621059,20.3692667 75.2446982,19.9614389 75.6040568,19.3802237 C75.9634153,18.7990085 76.0679033,18.0955743 75.893,17.435 C75.486564,16.1318756 74.1455649,15.3611715 72.815,15.666 L48.946,20.592 L48.767,20.277 C46.7875669,16.7900914 42.750853,15.0199098 38.845,15.926 L38.846,15.927 Z M40.857,31.213 C37.4396054,31.209765 34.6239077,28.5296328 34.4521856,25.1165538 C34.2804635,21.7034749 36.812932,18.7542606 40.212744,18.4080316 C43.6125561,18.0618027 46.6875523,20.4399658 47.20738,23.8175945 C47.7272078,27.1952232 45.5095871,30.3879368 42.163,31.08 L42.163,31.08 C41.7339128,31.1680777 41.2970336,31.2126367 40.859,31.213 L40.857,31.213 Z M40.887,19.4 C40.5137317,19.4006848 40.1414947,19.4392152 39.776,19.515 C37.8851719,19.9058486 36.3464898,21.2757523 35.7395606,23.1086818 C35.1326313,24.9416113 35.5496617,26.9591009 36.8335606,28.4011818 C38.1174594,29.8432627 40.0731719,30.4908486 41.964,30.1 L41.964,30.1 C44.6755571,29.5393846 46.5251688,27.0205941 46.2483779,24.265559 C45.971587,21.5105239 43.6578863,19.4100101 40.889,19.4 L40.887,19.4 Z" id="Path_77" fill="#FFFFFF"></path>
                            <ellipse id="Ellipse_4" fill="#407BFF" opacity="0.6" cx="24.495" cy="52.258" rx="11.861" ry="7.56"></ellipse>
                            <ellipse id="Ellipse_5" fill="#407BFF" opacity="0.3" cx="5.629" cy="59.817" rx="4.869" ry="3.103"></ellipse>
                        </g>
                    </g>
                </g>
            </g>
        </g>
    </g>
</svg>
