<?xml version="1.0" encoding="UTF-8"?>
<svg width="57px" height="41px" viewBox="0 0 57 41" version="1.1" xmlns="http://www.w3.org/2000/svg" xmlns:xlink="http://www.w3.org/1999/xlink">
    <!-- Generator: Sketch 60.1 (88133) - https://sketch.com -->
    <title>mlLogoBlue</title>
    <desc>Created with Sketch.</desc>
    <g id="Page-1" stroke="none" strokeWidth="1" fill="none" fillRule="evenodd">
        <g id="desktopDashboard" transform="translate(-31.000000, -9.000000)" fillRule="nonzero">
            <g id="topNavigation" transform="translate(0.000000, -1.000000)">
                <g id="Group-29" transform="translate(27.000000, 6.000000)">
                    <g id="Group-12-Copy">
                        <g id="mlLogoBlue" transform="translate(4.583333, 4.615385)">
                            <path d="M12.2411839,26.6608837 L12.2411839,24.7021502 C12.2411839,24.1498654 11.7934686,23.7021502 11.2411839,23.7021502 L4.85927336,23.7021502 L4.85927336,23.7021502 L4.85927336,12.1343638 C4.85927336,11.582079 4.41155811,11.1343638 3.85927336,11.1343638 L1,11.1343638 C0.44771525,11.1343638 -6.76353751e-17,11.582079 0,12.1343638 L0,26.6608837 C-4.33869274e-17,27.2131684 0.44771525,27.6608837 1,27.6608837 L11.2411839,27.6608837 C11.7934686,27.6608837 12.2411839,27.2131684 12.2411839,26.6608837 Z M21.7969798,27.8755138 C23.7654893,27.8755138 25.4356223,27.4939491 26.8073789,26.7308198 C28.1791355,25.9676904 29.2118279,24.9382607 29.9054563,23.6425307 C30.5990846,22.3468007 30.9458988,20.927857 30.9458988,19.3856998 C30.9458988,18.2489551 30.7521478,17.1658678 30.364646,16.1364382 C29.9771441,15.1070085 29.4075164,14.204767 28.6557628,13.4297138 C27.9040092,12.6546605 26.944942,12.0405799 25.7785614,11.5874718 C24.6121808,11.1343638 23.2849869,10.9078097 21.7969798,10.9078097 C19.8052202,10.9078097 18.1176496,11.3032856 16.734268,12.0942374 C15.3508863,12.8851892 14.3259439,13.9265428 13.6594407,15.2182982 C12.9929375,16.5100536 12.6596859,17.8991875 12.6596859,19.3856998 C12.6596859,20.8642629 12.994875,22.2514095 13.6652532,23.5471395 C14.3356314,24.8428696 15.3605738,25.8881978 16.7400805,26.6831242 C18.1195871,27.4780506 19.8052202,27.8755138 21.7969798,27.8755138 Z M21.7969798,23.630607 C20.5027236,23.630607 19.4816562,23.2391057 18.7337776,22.4561032 C17.985899,21.6731007 17.6119597,20.6496329 17.6119597,19.3856999 C17.6119597,18.1217669 17.9839615,17.1002865 18.727965,16.3212586 C19.4719686,15.5422307 20.4949735,15.1527167 21.7969798,15.1527167 C22.4789831,15.1527167 23.079611,15.2580445 23.5988635,15.4687 C24.118116,15.6793555 24.5579306,15.9734783 24.9183073,16.3510683 C25.278684,16.7286584 25.5479978,17.1738171 25.7262487,17.6865447 C25.9044995,18.1992722 25.993625,18.7656573 25.993625,19.3856999 C25.993625,20.2124234 25.8308742,20.945743 25.5053726,21.5856588 C25.1798711,22.2255745 24.7032438,22.7263782 24.0754907,23.0880697 C23.4477377,23.4497612 22.6882341,23.630607 21.7969798,23.630607 Z" id="LO" fill="#002A4C"></path>
                            <path d="M55.047993,26.5725191 L55.047993,12.2108045 C55.047993,11.6585197 54.6002778,11.2108045 54.047993,11.2108045 L51.2870855,11.2108045 C50.7348008,11.2108045 50.2870855,11.6585197 50.2870855,12.2108045 L50.2870855,26.5725191 C50.2870855,27.1248038 50.7348008,27.5725191 51.2870855,27.5725191 L54.047993,27.5725191 C54.6002778,27.5725191 55.047993,27.1248038 55.047993,26.5725191 Z" id="I" fill="#002A4C"></path>
                            <rect id="Rectangle_2" fill="#00284E" x="33.921466" y="0.908984146" width="11.9022688" height="1.51497358" rx="0.757486788"></rect>
                            <rect id="Rectangle_3" fill="#00284E" x="33.921466" y="3.63593658" width="11.9022688" height="1.51497358" rx="0.757486788"></rect>
                            <rect id="Rectangle_4" fill="#00284E" x="33.921466" y="6.36288902" width="11.9022688" height="1.51497358" rx="0.757486788"></rect>
                            <ellipse id="Ellipse_16" fill="#FE4141" cx="40.0213787" cy="4.39342337" rx="1.63656195" ry="1.66647093"></ellipse>
                            <path d="M39.7382964,11.1918477 L33.5684139,9.69583089 C33.5684139,9.69583089 32.3231572,12.0941064 32.5449233,14.7546979 C32.7666894,17.4152895 33.5628033,19.5612102 36.0917051,22.20852 C37.6638405,23.9014494 38.8912272,25.8968424 39.7025658,28.0787859 C39.7025658,28.0787859 40.6770375,32.416812 37.5920963,33.2058733 C37.2672724,33.2306258 35.2037546,33.3607273 34.9790356,30.817861 C35.0002968,30.7946178 34.8683001,29.2113636 36.7357423,28.4555069 C36.8402766,28.4235097 35.8755496,27.0669522 35.8755496,27.0669522 L36.2916194,25.0324177 C36.2916194,25.0324177 30.1116969,25.025173 30.0532286,32.0428078 C30.0916169,33.3854798 31.0179556,39.5376827 38.437229,39.6864996 C38.455242,39.7230246 47.3518736,39.8914623 47.609075,29.1078257 C47.5786841,28.2515262 47.4646254,27.4004773 47.2686005,26.5673743 C46.1039592,23.0573495 45.611408,20.4550169 45.7649611,19.1594349 C45.7965576,19.0658584 46.6667904,13.4865852 46.6667904,13.4865852 C46.7921621,12.8619967 46.8457764,12.2245821 46.8265447,11.5872839 C46.7826833,10.9460368 46.6671603,10.3120295 46.4822314,9.69764204 L39.7382964,11.1918477 Z" id="Path_124" fill="#FE4141"></path>
                            <path d="M29.095089,32.1174398 L0.297374173,32.1174398 C0.133138952,32.1174398 0,32.2530952 0,32.4204345 L0,35.4503817 C0,35.617721 0.133138952,35.7533764 0.297374173,35.7533764 L30.0532286,35.7533764 C29.7690538,35.1890295 29.5435109,34.5959821 29.3802709,33.9838873 C29.2139366,33.3752343 29.1182224,32.7488079 29.095089,32.1174398 Z" id="Path_129" fill="#00274F"></path>
                            <path d="M48.3644722,32.1495923 L54.7554848,32.1174398 C54.9170326,32.1174398 55.047993,32.251974 55.047993,32.4179304 L55.047993,35.4228367 C55.047993,35.5887931 54.9170326,35.7233273 54.7554848,35.7233273 L47.0139616,35.7533764 C47.3328973,35.2004822 47.6068362,34.6214718 47.8329847,34.0222499 C48.057258,33.4131706 48.2349591,32.7870538 48.3644722,32.1495923 Z" id="Path_130" fill="#00274F"></path>
                            <path d="M2.54806014,7.78684674 L2.54806014,3.69605458 L2.54806014,3.69605458 L4.85546959,6.56334708 C4.89651935,6.6143574 4.95846994,6.64402264 5.02394617,6.64402264 C5.08941172,6.64402264 5.15134127,6.61431823 5.19231834,6.56326318 L7.49355618,3.69605458 L7.49355618,3.69605458 L7.49355618,7.78684674 C7.49355618,8.33913149 7.94127143,8.78684674 8.49355618,8.78684674 L9.11692845,8.78684674 C9.6692132,8.78684674 10.1169284,8.33913149 10.1169284,7.78684674 L10.1169284,1 C10.1169284,0.44771525 9.6692132,3.24490218e-16 9.11692845,0 L8.21344046,0 C7.91279793,2.77271741e-16 7.62810867,0.135261526 7.43820214,0.368331132 L5.82924377,2.34298311 C5.48038269,2.77113541 4.85048889,2.83541364 4.42233659,2.48655255 C4.36913915,2.44320696 4.32054457,2.39450084 4.27732104,2.34120417 L2.6787666,0.370110071 C2.488889,0.135981917 2.20352785,-2.77419276e-16 1.90208218,0 L1,0 C0.44771525,1.01453063e-16 -6.76353751e-17,0.44771525 0,1 L0,7.78684674 C-4.22892021e-16,8.33913149 0.44771525,8.78684674 1,8.78684674 L1.54806014,8.78684674 C2.10034489,8.78684674 2.54806014,8.33913149 2.54806014,7.78684674 Z M16.5112767,9.08984146 C17.5683313,9.08984146 18.4651631,8.88543181 19.201772,8.47661252 C19.938381,8.06779323 20.4929185,7.51631303 20.8653846,6.82217194 C21.2378507,6.12803085 21.4240838,5.36788248 21.4240838,4.54172683 C21.4240838,3.93275642 21.320043,3.35253113 21.1119613,2.80105093 C20.9038797,2.24957074 20.5979997,1.7662271 20.1943214,1.35102001 C19.790643,0.935812912 19.275641,0.606841137 18.6493153,0.364104682 C18.0229897,0.121368227 17.3103101,0 16.5112767,0 C15.4417371,0 14.5355417,0.211862081 13.7926903,0.635586244 C13.0498389,1.05931041 12.499463,1.6171784 12.1415626,2.30919022 C11.7836622,3.00120205 11.604712,3.74538091 11.604712,4.54172683 C11.604712,5.33381421 11.7847026,6.07692844 12.1446839,6.77106953 C12.5046651,7.46521062 13.0550409,8.02520788 13.7958115,8.45106131 C14.5365821,8.87691474 15.4417371,9.08984146 16.5112767,9.08984146 Z M16.5113027,6.66588373 C15.8220936,6.66588373 15.2783613,6.45600343 14.8801058,6.03624282 C14.4818503,5.61648221 14.2827225,5.06781034 14.2827225,4.39022722 C14.2827225,3.71264411 14.4808185,3.16503762 14.8770106,2.74740778 C15.2732026,2.32977793 15.8179666,2.12096301 16.5113027,2.12096301 C16.8744787,2.12096301 17.1943212,2.17742827 17.4708302,2.29035879 C17.7473392,2.40328931 17.9815465,2.56096588 18.173452,2.76338851 C18.3653575,2.96581114 18.5087708,3.20445677 18.6036918,3.47932539 C18.6986128,3.75419401 18.7460733,4.05782796 18.7460733,4.39022722 C18.7460733,4.83342624 18.6594063,5.2265523 18.4860723,5.56960539 C18.3127383,5.91265848 18.0589278,6.18113481 17.7246407,6.37503438 C17.3903537,6.56893395 16.9859077,6.66588373 16.5113027,6.66588373 Z M25.7468612,7.78684674 L25.7468612,3.89258579 L25.7468612,3.89258579 L29.8557502,8.45597674 C30.0453877,8.66659085 30.3154865,8.78684674 30.5988955,8.78684674 L31.4336824,8.78684674 C31.9859671,8.78684674 32.4336824,8.33913149 32.4336824,7.78684674 L32.4336824,1 C32.4336824,0.44771525 31.9859671,-4.3451997e-16 31.4336824,0 L30.877858,0 C30.3255732,1.01453063e-16 29.877858,0.44771525 29.877858,1 L29.877858,4.86890209 L29.877858,4.86890209 L25.7811426,0.329980044 C25.5915326,0.119903175 25.3217911,-5.19847163e-17 25.0387995,0 L24.2094241,0 C23.6571393,1.01453063e-16 23.2094241,0.44771525 23.2094241,1 L23.2094241,7.78684674 C23.2094241,8.33913149 23.6571393,8.78684674 24.2094241,8.78684674 L24.7468612,8.78684674 C25.299146,8.78684674 25.7468612,8.33913149 25.7468612,7.78684674 Z" id="MON" fill="#002A4C"></path>
                            <path d="M53.2048709,8.08984146 L53.2048709,4.9253037 L53.2048709,4.9253037 L55.9554395,1.19166005 C56.200465,0.859060459 56.1294722,0.390802785 55.7968726,0.145777261 C55.6683337,0.0510828443 55.5128683,-2.93279038e-17 55.3532147,0 L54.3749107,0 C54.0591322,7.24141384e-16 53.7619066,0.149152171 53.5731732,0.402323621 L51.7414579,2.85943065 L51.7414579,2.85943065 L49.916381,0.40352996 C49.7277128,0.149650034 49.4300536,-2.8014943e-16 49.1137457,0 L48.1664534,0 C47.7635734,7.40078629e-17 47.4369746,0.326598803 47.4369746,0.729478844 C47.4369746,0.886091428 47.4873773,1.03854611 47.5807287,1.16429597 L50.4116898,4.97777032 L50.4116898,4.97777032 L50.4116898,8.08984146 C50.4116898,8.64212621 50.8594051,9.08984146 51.4116898,9.08984146 L52.2048709,9.08984146 C52.7571556,9.08984146 53.2048709,8.64212621 53.2048709,8.08984146 Z" id="Y" fill="#002A4C"></path>
                        </g>
                    </g>
                </g>
            </g>
        </g>
    </g>
</svg>
