<?xml version="1.0" encoding="UTF-8"?>
<svg width="534px" height="460px" viewBox="0 0 534 460" version="1.1" xmlns="http://www.w3.org/2000/svg" xmlns:xlink="http://www.w3.org/1999/xlink">
    <!-- Generator: Sketch 60.1 (88133) - https://sketch.com -->
    <title>OBJECTS</title>
    <desc>Created with Sketch.</desc>
    <defs>
        <linearGradient x1="0%" y1="50%" x2="100%" y2="50%" id="linearGradient-1">
            <stop stop-color="#CC68FF" offset="0%"></stop>
            <stop stop-color="#FB8E31" offset="100%"></stop>
        </linearGradient>
        <linearGradient x1="-42.6%" y1="240.798381%" x2="-21.7%" y2="-33.0815742%" id="linearGradient-2">
            <stop stop-color="#1AE5FF" offset="0%"></stop>
            <stop stop-color="#63E8F8" offset="25.9%"></stop>
            <stop stop-color="#EAEEEE" offset="70.4%"></stop>
        </linearGradient>
        <linearGradient x1="-2159.8%" y1="50%" x2="-2059.8%" y2="50%" id="linearGradient-3">
            <stop stop-color="#5155D4" offset="0%"></stop>
            <stop stop-color="#45F7FF" offset="100%"></stop>
        </linearGradient>
        <linearGradient x1="0%" y1="50%" x2="100%" y2="50%" id="linearGradient-4">
            <stop stop-color="#7F5EFF" offset="0%"></stop>
            <stop stop-color="#8664FF" offset="24.2%"></stop>
            <stop stop-color="#9977FF" offset="59.5%"></stop>
            <stop stop-color="#B391FF" offset="94%"></stop>
        </linearGradient>
        <linearGradient x1="37.9176335%" y1="-70.4%" x2="70.6698336%" y2="257.4%" id="linearGradient-5">
            <stop stop-color="#5155D4" offset="0%"></stop>
            <stop stop-color="#45F7FF" offset="100%"></stop>
        </linearGradient>
        <linearGradient x1="50%" y1="-43.1%" x2="50%" y2="143.1%" id="linearGradient-6">
            <stop stop-color="#7F5EFF" offset="0%"></stop>
            <stop stop-color="#8664FF" offset="24.2%"></stop>
            <stop stop-color="#9977FF" offset="59.5%"></stop>
            <stop stop-color="#B391FF" offset="94%"></stop>
        </linearGradient>
        <linearGradient x1="2493.29961%" y1="95.2%" x2="2711.50122%" y2="7.3%" id="linearGradient-7">
            <stop stop-color="#1AE5FF" offset="0%"></stop>
            <stop stop-color="#63E8F8" offset="25.9%"></stop>
            <stop stop-color="#EAEEEE" offset="70.4%"></stop>
        </linearGradient>
        <linearGradient x1="-132.5%" y1="50%" x2="-32.5%" y2="50%" id="linearGradient-8">
            <stop stop-color="#5155D4" offset="0%"></stop>
            <stop stop-color="#45F7FF" offset="100%"></stop>
        </linearGradient>
        <linearGradient x1="1029.4141%" y1="171.3%" x2="1008.97016%" y2="-71.4%" id="linearGradient-9">
            <stop stop-color="#1AE5FF" offset="0%"></stop>
            <stop stop-color="#63E8F8" offset="25.9%"></stop>
            <stop stop-color="#EAEEEE" offset="70.4%"></stop>
        </linearGradient>
        <linearGradient x1="970.8%" y1="332.372247%" x2="948.7%" y2="-183.538694%" id="linearGradient-10">
            <stop stop-color="#1AE5FF" offset="0%"></stop>
            <stop stop-color="#63E8F8" offset="25.9%"></stop>
            <stop stop-color="#EAEEEE" offset="70.4%"></stop>
        </linearGradient>
        <linearGradient x1="2679.98764%" y1="219.6%" x2="2643.28828%" y2="3.4%" id="linearGradient-11">
            <stop stop-color="#1AE5FF" offset="0%"></stop>
            <stop stop-color="#63E8F8" offset="25.9%"></stop>
            <stop stop-color="#EAEEEE" offset="70.4%"></stop>
        </linearGradient>
        <linearGradient x1="39.0374043%" y1="71%" x2="130.923888%" y2="-104.7%" id="linearGradient-12">
            <stop stop-color="#CC68FF" offset="0%"></stop>
            <stop stop-color="#FB8E31" offset="100%"></stop>
        </linearGradient>
        <linearGradient x1="532.7%" y1="100.869498%" x2="594.8%" y2="5.27847277%" id="linearGradient-13">
            <stop stop-color="#92F3FF" offset="0%"></stop>
            <stop stop-color="#FFFFFF" offset="100%"></stop>
        </linearGradient>
        <linearGradient x1="0%" y1="50%" x2="100%" y2="50%" id="linearGradient-14">
            <stop stop-color="#5155D4" offset="0%"></stop>
            <stop stop-color="#45F7FF" offset="100%"></stop>
        </linearGradient>
    </defs>
    <g id="Page-1" stroke="none" strokeWidth="1" fill="none" fillRule="evenodd">
        <g id="Desktop-signin" transform="translate(-95.000000, -129.000000)" fillRule="nonzero">
            <g id="OBJECTS" transform="translate(361.500000, 359.000000) scale(-1, 1) translate(-361.500000, -359.000000) translate(94.000000, 129.000000)">
                <g id="Group_4" transform="translate(388.000000, 361.000000)" fill="#1AE5FF">
                    <path d="M38.2323953,20.2538102 C40.4538932,21.6893444 41.8508335,24.0939374 41.991035,26.7236631 C41.9839725,29.1100267 40.2960453,30.0758021 38.2069705,28.8812166 L3.93145367,9.2105615 C1.70581601,7.77154161 0.307961698,5.36053879 0.17140151,2.72526738 C0.178463967,0.348729947 1.87486616,-0.611430481 3.95546603,0.581751337 L38.2323953,20.2538102 Z" id="Path_3"></path>
                </g>
                <g id="Group_10" transform="translate(0.000000, 130.000000)">
                    <g id="Group_5" opacity="0.57" fill="#1AE5FF">
                        <path d="M4.26644254,35.5530727 C1.81007255,37.1595675 0.266525752,39.8390626 0.110116323,42.76818 L0.394309568,140.772677 C0.411361163,147.019523 4.85472256,149.575051 10.2686039,146.451628 L68.6987352,112.745634 C71.1554959,111.138848 72.6990951,108.458735 72.8550614,105.529107 L72.5708682,7.52602981 C72.5523956,1.27918371 68.1090342,-1.27634424 62.6965739,1.84707881 L4.26644254,35.5530727 Z" id="Path_4"></path>
                    </g>
                    <g id="Group_9" transform="translate(11.898452, 42.592133)">
                        <g id="Group_8" fill="#FFFFFF">
                            <g id="Group_6">
                                <path d="M1.33428729,28.4770998 C0.603214897,28.9503482 0.14309838,29.7446957 0.0966257036,30.6138051 L0.110835366,35.817144 C0.110835366,36.6050984 0.67069606,36.9231197 1.35702275,36.5270128 L48.9977575,9.04514921 C49.7298805,8.57025046 50.1900423,7.77371327 50.2354191,6.90276494 L50.2212094,1.69942609 C50.2212094,0.915730849 49.6613487,0.599129331 48.975022,0.989557212 L1.33428729,28.4770998 Z" id="Path_5"></path>
                            </g>
                            <g id="Group_7" transform="translate(0.000000, 11.357902)">
                                <path d="M1.36554855,28.4458656 C0.633990744,28.9206386 0.173937609,29.7164599 0.127886961,30.5868301 L0.143517589,35.7915887 C0.143517589,36.5795431 0.701957317,36.8918854 1.38828401,36.5014576 L49.0233349,9.01391498 C49.7547532,8.54099531 50.2149814,7.74645494 50.2609965,6.87720966 L50.2453659,1.67245107 C50.2453659,0.884496618 49.6869261,0.5678951 49.0005994,0.962582195 L1.36554855,28.4458656 Z" id="Path_6"></path>
                            </g>
                        </g>
                        <path d="M19.9631545,48.2370098 C18.2292685,49.3627677 17.1390922,51.2494009 17.0302803,53.3125723 L17.0302803,54.5065717 C17.0302803,56.3735268 18.3546208,57.1245681 19.9816271,56.1875412 L35.3891639,47.2985631 C37.1250668,46.1734679 38.2169727,44.2860562 38.3263011,42.221581 L38.3263011,41.0275815 C38.3263011,39.1648856 36.9976977,38.4110048 35.3706914,39.3494515 L19.9631545,48.2370098 Z" id="Path_7" fill="url(#linearGradient-1)"></path>
                    </g>
                </g>
                <g id="Group_14" transform="translate(181.000000, 0.000000)">
                    <path d="M25.0918909,2.26341438 C24.9358909,2.17418614 24.7798909,2.08779055 24.6238909,2.00281127 C24.4225091,1.89422664 24.2220727,1.79083519 24.0225818,1.69263692 C23.8230909,1.59443864 23.6245455,1.50001723 23.4269455,1.40937267 C23.2298182,1.32014443 23.0341091,1.2379978 22.8398182,1.16010013 C22.6455273,1.08220246 22.4427273,1.00572111 22.2470182,0.937737691 C22.2087273,0.923574479 22.1718545,0.91366023 22.1335636,0.900913339 L22.0896,0.885333805 C21.9477818,0.837178883 21.8059636,0.787607639 21.6641455,0.74370168 C21.4613455,0.682799867 21.2585455,0.627563338 21.0585818,0.576575773 C20.8586182,0.525588208 20.6558182,0.481682249 20.4558545,0.443441576 C20.2558909,0.405200902 20.0304,0.365543907 19.8134182,0.337217482 C19.6716,0.317388984 19.5297818,0.306058414 19.3879636,0.293311523 L19.3241455,0.286229917 L19.1667273,0.270650383 C18.9341455,0.255070849 18.7044,0.247836446 18.4774909,0.247836446 C18.2193818,0.247836446 17.9669455,0.260736134 17.7173455,0.284813596 C17.4316766,0.309708941 17.1476059,0.350372313 16.8664364,0.406617223 L16.8465818,0.406617223 L16.8196364,0.406617223 C16.4876918,0.473928034 16.1607467,0.563838271 15.8410909,0.67571826 C15.4292491,0.821253164 15.0318629,1.00474982 14.6540727,1.22383458 L4.92534545,6.86929108 C5.59786642,6.48346421 6.3280759,6.20802234 7.08807273,6.05349004 L7.11785455,6.04499211 C7.93127404,5.88676739 8.76308258,5.84480234 9.58832727,5.92035584 L9.6564,5.92743745 C10.5802671,6.01775468 11.4903388,6.2159775 12.3679636,6.51804341 L12.4090909,6.53220662 C13.4371211,6.88999756 14.4282746,7.34579484 15.3688364,7.89329134 L281.334655,161.673204 L291.063382,156.027747 L25.0918909,2.26341438 Z" id="Path_8" fill="url(#linearGradient-2)"></path>
                    <path d="M311.465345,183.59644 C311.465345,183.359915 311.448327,183.123389 311.432727,182.88828 C311.417127,182.65317 311.398691,182.412396 311.376,182.180119 C311.353309,181.947842 311.326364,181.701402 311.295164,181.460628 C311.263964,181.219853 311.229927,180.970581 311.190218,180.724141 L311.190218,180.704312 L311.190218,180.688733 C311.153345,180.45504 311.112218,180.218514 311.068255,179.980572 C311.024291,179.74263 310.968982,179.470696 310.912255,179.215759 C310.855527,178.960821 310.797382,178.704467 310.733564,178.448112 C310.669745,178.191758 310.601673,177.929739 310.529345,177.670552 C310.472618,177.469434 310.413055,177.268317 310.353491,177.067199 L310.339309,177.019044 C310.326545,176.977971 310.3152,176.936898 310.302436,176.895824 C310.223964,176.642775 310.143127,176.390198 310.059927,176.138092 C309.976727,175.885987 309.889745,175.637187 309.798982,175.391691 C309.712473,175.152333 309.621709,174.912975 309.529527,174.675033 C309.437345,174.437091 309.340909,174.200565 309.245891,173.966872 C309.169309,173.784167 309.091309,173.604294 309.011891,173.423005 L308.997709,173.389013 L308.943818,173.265793 C308.838873,173.027851 308.731091,172.791797 308.620473,172.557632 C308.5004,172.299862 308.376073,172.043508 308.247491,171.78857 C308.105673,171.493975 307.949673,171.202213 307.795091,170.910451 C307.640509,170.618689 307.449055,170.290102 307.271782,169.981344 C307.240582,169.927524 307.212218,169.872287 307.181018,169.818467 C307.149818,169.764647 307.108691,169.688166 307.071818,169.624431 C306.725782,169.03713 306.3632,168.460215 305.984073,167.893686 C305.683418,167.444241 305.373782,167.003765 305.055164,166.572259 C304.841018,166.288995 304.629709,165.997232 304.4028,165.722466 C304.213709,165.487357 304.024618,165.25508 303.835527,165.025636 C303.649745,164.800441 303.461127,164.580911 303.268255,164.362798 C303.075382,164.144684 302.8896,163.937901 302.700982,163.731118 L302.586109,163.609315 L302.543564,163.566825 C302.401745,163.41103 302.251418,163.255234 302.102509,163.103688 C301.898291,162.895489 301.691236,162.692955 301.484182,162.493254 C301.277127,162.293552 301.058727,162.089602 300.838909,161.89415 C300.619091,161.698697 300.404945,161.510327 300.185127,161.327621 C300.075927,161.23556 299.965309,161.147748 299.854691,161.05852 L299.779527,160.996202 L299.532764,160.795084 C299.318618,160.626542 299.107309,160.463665 298.887491,160.303621 C298.667673,160.143577 298.462036,159.997696 298.249309,159.850398 C298.036582,159.703101 297.833782,159.567134 297.625309,159.438249 C297.416836,159.309363 297.2112,159.180478 297.002727,159.058675 L296.860909,158.973695 L287.132182,164.620568 C288.157441,165.217433 289.134254,165.893675 290.053636,166.643075 L290.127382,166.70256 C291.07936,167.48062 291.979456,168.319923 292.821927,169.215114 L292.864473,169.25902 C294.625902,171.151267 296.167777,173.236077 297.4608,175.473838 C297.492,175.527658 297.520364,175.582895 297.551564,175.636715 C298.18644,176.738151 298.761632,177.872842 299.274655,179.035886 L299.293091,179.076959 C299.805827,180.248591 300.249066,181.449347 300.620509,182.672999 L300.634691,182.721154 C300.994468,183.907397 301.274474,185.116323 301.472836,186.339854 L301.472836,186.354018 C301.661951,187.53196 301.756797,188.723078 301.756473,189.916066 L301.221818,375.340843 C301.222551,376.400266 301.122354,377.457356 300.922582,378.497824 L300.904145,378.588468 C300.728369,379.477772 300.449965,380.34373 300.074509,381.169005 C300.067418,381.184585 300.061745,381.201581 300.054655,381.21716 C299.755882,381.825184 299.385992,382.395693 298.952727,382.916746 C298.810909,383.086704 298.690364,383.265161 298.545709,383.420956 C298.077696,383.936014 297.537429,384.380637 296.941745,384.740968 L306.670473,379.094095 C307.266156,378.733764 307.806423,378.289142 308.274436,377.774083 C308.416255,377.618288 308.545309,377.441248 308.681455,377.271289 C308.869132,377.062576 309.045703,376.844162 309.210436,376.616949 C309.41599,376.294549 309.601187,375.959645 309.764945,375.614193 L309.7848,375.567455 L309.803236,375.522133 C309.913855,375.282774 310.020218,375.037751 310.116655,374.781397 C310.213091,374.525042 310.293927,374.274354 310.373345,374.009502 C310.444255,373.765894 310.509018,373.51615 310.567636,373.260268 C310.591745,373.15546 310.610182,373.044987 310.632873,372.938763 L310.651309,372.848118 C310.671164,372.746143 310.693855,372.647 310.712291,372.543609 C310.752,372.314165 310.787455,372.080472 310.817236,371.835448 C310.847018,371.590425 310.871127,371.368062 310.889564,371.127288 C310.908,370.886513 310.9236,370.669816 310.933527,370.434707 C310.943455,370.199597 310.949127,369.965904 310.949127,369.726546 L310.949127,369.684056 L311.475273,184.247948 C311.475273,184.041165 311.472436,183.817386 311.465345,183.59644 Z" id="Path_9" fill="url(#linearGradient-3)"></path>
                    <g id="Group_11" transform="translate(0.000000, 5.665285)" fill="url(#linearGradient-4)">
                        <path d="M287.119418,158.938287 C295.228582,163.612147 301.772073,174.934219 301.74662,184.23945 L301.221818,369.675558 C301.194873,378.980789 294.607418,382.729791 286.499673,378.054515 L14.7405818,221.36123 C6.63283636,216.68737 0.0879272727,205.365298 0.114789824,196.061483 L0.641018182,10.6239587 C0.667963636,1.31872811 7.254,-2.42885792 15.3631636,2.2450022 L287.119418,158.938287 Z" id="Path_10"></path>
                    </g>
                    <g id="Group_12" transform="translate(18.436364, 25.493782)" fill="#F9FBFC">
                        <path d="M251.907382,138.69764 C259.361345,142.996175 265.380109,153.403304 265.354663,161.957884 L264.870982,332.429142 C264.845455,340.983723 258.789818,344.429632 251.335855,340.132514 L14.3094545,203.549574 C6.85549091,199.252455 0.836727273,188.845327 0.863582605,180.290746 L1.34727273,9.81948824 C1.37138182,1.2649079 7.42701818,-2.1810017 14.8809818,2.11611697 L251.907382,138.69764 Z" id="Path_11"></path>
                    </g>
                    <path d="M291.412255,312.351372 L291.412255,312.351372 C290.315718,312.351372 289.4268,311.46362 289.4268,310.368523 L289.4268,250.939683 C289.4268,249.844585 290.315718,248.956833 291.412255,248.956833 L291.412255,248.956833 C292.508791,248.956833 293.397709,249.844585 293.397709,250.939683 L293.397709,310.368523 C293.397709,311.46362 292.508791,312.351372 291.412255,312.351372 L291.412255,312.351372 Z" id="Path_12" fill="#F9FBFC"></path>
                    <g id="Group_13" transform="translate(5.148528, 120.731605)" fill="#FFFFFF">
                        <path d="M4.21998083,1.41632125 C6.69445519,3.02298742 8.25044219,5.71449285 8.40645356,8.65797179 C8.39936265,11.3192394 6.51176265,12.3928109 4.19303537,11.0558037 C1.71841237,9.44947382 0.162761503,6.75763795 0.00798082834,3.81415312 C0.0150717374,1.15430182 1.90267174,0.0793139899 4.21998083,1.41632125 Z" id="Path_13"></path>
                    </g>
                </g>
                <g id="Group_18" transform="translate(261.000000, 114.000000)">
                    <path d="M92.7052447,32.5799798 C93.4334233,34.9688434 93.9541512,37.4161605 94.2616277,39.8946701 C94.4357728,41.3124155 94.5227167,42.7395284 94.5219729,44.1679444 C94.5219729,44.5927232 94.5078191,45.0090064 94.4894255,45.4196258 C94.4894255,45.4833426 94.4894255,45.5470595 94.4823511,45.6093603 C94.4625426,45.9987409 94.4342447,46.3810418 94.4002872,46.756263 L94.3790638,46.9743161 C94.3408617,47.3509533 94.297,47.7219267 94.2375745,48.0829887 C94.1625851,48.575732 94.0960851,48.9325462 94.0338298,49.2695373 C93.9446915,49.7141391 93.8640426,50.056794 93.777734,50.3923692 C93.7635851,50.4504223 93.7494362,50.5084754 93.7338723,50.5651125 C93.6475638,50.8907763 93.5555957,51.2093603 93.4508936,51.5208648 L93.3957128,51.6907763 C93.2910106,52.0051125 93.1820638,52.3137851 93.0646277,52.6139621 C92.9146489,52.9877674 92.7929681,53.2695373 92.6656277,53.5442276 C92.4831064,53.9321922 92.3444468,54.2012187 92.2001277,54.4645816 C92.1718298,54.5141391 92.1449468,54.5651125 92.1166489,54.616086 C91.9713865,54.8737851 91.8199929,55.1244046 91.6624681,55.3679444 L91.5846489,55.4826347 C91.4176915,55.7346701 91.2464894,55.9810418 91.0667979,56.216086 C90.8871064,56.4511302 90.693266,56.6833426 90.5008404,56.8999798 L90.4187766,56.9934311 C90.2334255,57.2001568 90.041,57.3983869 89.8443298,57.5881214 L89.7311383,57.695732 C89.5330532,57.8845226 89.3297801,58.0638736 89.1213191,58.2337851 C89.0887766,58.2606878 89.056234,58.2847586 89.0236915,58.3102453 C88.8142872,58.4787409 88.5992234,58.6387409 88.3827447,58.7902453 C88.1110851,58.9771479 87.8790426,59.1201568 87.6441702,59.256086 L87.5111702,59.3339621 C87.2819574,59.4632836 87.0485,59.5841096 86.8107979,59.69644 L86.6693085,59.7644046 C86.423117,59.876263 86.1755106,59.9810418 85.9208298,60.075909 C85.7114255,60.1509533 85.5770106,60.1891833 85.4454255,60.2316612 C85.3633617,51.1923692 79.0175638,40.2670595 71.1847128,35.736086 C63.2740426,31.1654665 56.8433511,34.8327232 56.817883,43.915909 C56.8292021,43.935732 57.0470957,44.2982099 57.468734,44.9410418 C57.2819681,44.6833426 57.0952021,44.4242276 56.9126809,44.1622807 C56.5589574,43.6482984 56.3184255,43.2914842 56.0821383,42.9318382 L55.9519681,42.7350241 C55.7010603,42.3498913 55.4548688,41.9609828 55.2133936,41.5682984 C55.1624574,41.4847586 55.1115213,41.4012187 55.0591702,41.3176789 C54.8143936,40.9141391 54.5710319,40.5091833 54.3347447,40.0999798 C54.0800638,39.656794 53.8550957,39.2504223 53.6272979,38.8426347 L53.4985426,38.6061745 C53.2797057,38.1983869 53.0651135,37.7882394 52.854766,37.375732 C52.8165638,37.3006878 52.7797766,37.2242276 52.7415745,37.1491833 C52.5434894,36.7527232 52.348234,36.3548471 52.1600532,35.9541391 C51.9067872,35.4175019 51.7143617,34.9913072 51.5261809,34.5651125 L51.4115745,34.3017497 C51.222922,33.876971 51.0441738,33.4521922 50.8753298,33.0274134 C50.6546064,32.4737851 50.4975532,32.0688294 50.3475745,31.6610418 L50.2711702,31.4599798 C50.1145887,31.0304813 49.9636667,30.6014547 49.8184043,30.1729002 C49.7901064,30.0865285 49.7618085,30.0015727 49.7320957,29.915201 C49.4406277,29.035437 49.1760426,28.155201 48.9383404,27.2744931 L48.8675957,27.0125462 C48.7558191,26.5877674 48.6482872,26.1629887 48.5492447,25.7382099 L48.4983085,25.5102453 C48.4039823,25.1034016 48.3172021,24.6979739 48.2379681,24.2939621 C48.1261915,23.7275904 48.0512021,23.3028117 47.9818723,22.8780329 C47.9677234,22.7859975 47.9521596,22.695378 47.9380106,22.6033426 C47.8715106,22.1785639 47.8120851,21.7537851 47.759734,21.3290064 C47.6974787,20.7867055 47.6564468,20.3874134 47.6182447,19.9909533 C47.6182447,19.9187409 47.6055106,19.8493603 47.5998511,19.775732 C47.5673085,19.3608648 47.5418404,18.9488294 47.5248617,18.536794 C47.5248617,18.4490064 47.5177872,18.3612187 47.5149574,18.2734311 C47.4993936,17.8486524 47.4894894,17.4323692 47.4907702,17.016086 C47.4907702,15.6894823 47.5849899,14.3645512 47.773883,13.0514842 C48.0327489,11.1519179 48.5695569,9.30081702 49.3670532,7.55767892 C49.5170319,7.23909485 49.6755,6.93183821 49.8410426,6.63307715 C53.6612553,-0.232763556 61.7402979,-1.82709984 71.0644468,3.56475857 C79.4377872,8.40298866 86.769766,17.6872364 90.918234,27.6737851 C91.1913085,28.3307763 91.4544787,28.9905993 91.6992553,29.656086 C92.0737305,30.6226937 92.4090603,31.5973249 92.7052447,32.5799798 Z M71.5228723,33.2596258 C76.3504894,36.0490064 80.2669149,33.8019267 80.2824787,28.2642276 C79.9627907,22.1315948 76.7276577,16.5230851 71.580883,13.1789179 C66.7702447,10.396617 62.8368404,12.6238736 62.8212766,18.1743161 C63.1461915,24.3053991 66.3800528,29.9117041 71.5228723,33.2596258" id="Path_14" fill="url(#linearGradient-5)"></path>
                    <g id="Group_17" transform="translate(0.000000, 32.908475)" fill="#CFE3FF">
                        <g id="Group_15">
                            <path d="M129.53634,73.9454867 C131.466985,75.1977603 132.68241,77.2988108 132.80616,79.5978761 L132.766543,93.3706195 C132.766543,95.4548673 131.289394,96.2945133 129.4755,95.2467257 L3.60373404,22.5132743 C1.67065381,21.2580358 0.455027723,19.1524264 0.333914894,16.8495575 L0.373531915,3.07823009 C0.373531915,1.00530973 1.85068085,0.167079646 3.66315957,1.21486726 L129.53634,73.9454867 Z" id="Path_15"></path>
                        </g>
                        <g id="Group_16" transform="translate(0.000000, 30.628368)">
                            <path d="M129.451447,73.290924 C131.384872,74.5458351 132.600609,76.6516368 132.721266,78.9546408 L132.681649,92.7259683 C132.681649,94.811632 131.2045,95.6371187 129.390606,94.5893311 L3.51884043,21.8629594 C1.58612905,20.6126534 0.370036475,18.5104488 0.249021277,16.21057 L0.288638298,2.43782667 C0.288638298,0.35357888 1.76578723,-0.486067138 3.57826596,0.561720473 L129.451447,73.290924 Z" id="Path_16"></path>
                        </g>
                    </g>
                </g>
                <path d="M333.942426,258.484046 C337.522881,260.844665 339.774342,264.799563 340,269.124732 L339.992971,271.629849 C339.981725,275.543648 337.254481,277.120574 333.896035,275.152981 L302.066008,256.515027 C298.480787,254.155156 296.225801,250.197452 296,245.868638 L296,243.364947 C296.011246,239.461129 298.746925,237.8785 302.105371,239.846093 L333.942426,258.484046 Z" id="Path_17" fill="url(#linearGradient-6)"></path>
                <g id="Group_21" transform="translate(192.000000, 208.000000)">
                    <path d="M25.0552414,48.6869663 C25.0552414,48.6869663 14.2015517,54.9473258 12.5346897,83.5974607 C13.9230345,88.882382 22.255931,91.6671236 28.651931,87.4907191 C35.047931,83.3143146 28.4172414,53.5514157 25.0552414,48.6869663 Z" id="Path_18" fill="url(#linearGradient-7)"></path>
                    <path d="M80.244069,79.6220899 C80.244069,79.6220899 105.101379,68.5355056 108.443586,66.6525843 C111.785793,64.7696629 114.292448,57.8665618 115.546483,56.4026966 C116.800517,54.9388315 122.440138,51.5892135 122.230897,53.0559101 C122.021655,54.5226067 119.097931,57.2393933 119.097931,57.2393933 C120.187462,59.0726004 121.030308,61.0419374 121.604586,63.0962697 C122.028724,65.3968315 118.88869,69.9993708 117.221828,71.2551236 C115.554966,72.5108764 111.582207,72.9285169 111.582207,72.9285169 C111.582207,72.9285169 91.3197241,86.5195281 87.9718621,86.7333034 C84.624,86.9470787 79.8255862,85.0599101 80.244069,79.6220899 Z" id="Path_19" fill="#FF9D6F"></path>
                    <ellipse id="Ellipse_1" fill="url(#linearGradient-8)" opacity="0.21" style="mix-blend-mode: multiply;" cx="50.4851379" cy="221.655236" rx="50.2447931" ry="29.8973933"></ellipse>
                    <path d="M29.6514828,215.215079 C29.6514828,215.215079 29.0053793,219.95636 29.8663793,221.89591 C31.3696793,224.071158 34.3330266,224.645272 36.538069,223.188472 C38.8176991,221.318356 40.9744443,219.302888 42.9948621,217.154629 C42.9948621,217.154629 49.8800345,213.492135 50.5261379,211.552584 C51.1722414,209.613034 48.8041379,207.888674 46.8672414,208.319056 C44.9303448,208.749438 39.3359655,212.198157 36.7529655,212.198157 C34.1699655,212.198157 30.5124828,212.845146 29.6514828,215.215079 Z" id="Path_20" fill="#113C7A"></path>
                    <path d="M22.557069,114.298989 C22.557069,114.298989 28.5798276,213.834742 29.3305517,216.718584 C30.0812759,219.602427 37.8938966,221.257416 39.3416207,216.677528 C40.262,213.769618 42.5297241,121.656539 42.5297241,121.656539 L22.557069,114.298989 Z" id="Path_21" fill="#113C7A"></path>
                    <path d="M49.569,221.137079 C49.234128,221.429217 49.0414056,221.851826 49.0402414,222.296562 C49.0275172,223.665573 49.0911379,226.716472 49.8644828,227.90427 C51.657913,230.176701 54.8512824,230.77454 57.3434483,229.304427 C60.1300345,227.78818 68.7103448,221.366427 70.4521379,219.945034 C71.3110011,219.241042 71.9191059,218.27747 72.1854483,217.198517 C72.3712628,216.461824 71.9990349,215.698399 71.3046552,215.392045 C69.7116901,214.58459 67.8828797,214.374192 66.1485517,214.798854 C63.3068276,215.755888 59.729931,218.837933 55.8589655,218.670876 C53.5314309,218.693742 51.2932374,219.571304 49.569,221.137079 L49.569,221.137079 Z" id="Path_22" fill="#113C7A"></path>
                    <path d="M62.860069,115.372112 C62.4260345,111.236764 57.4876552,109.89182 52.931,111.300472 C44.2432414,110.831865 30.7924138,111.202787 30.3216207,117.954404 C29.6232069,127.950876 34.3028621,135.084742 38.8171034,139.936449 C42.1536552,143.521079 44.3733103,150.380292 45.3064138,153.722831 C46.0967241,180.121955 47.8441724,217.347169 48.9342069,220.910562 C50.6915517,226.649933 59.3383103,226.390854 59.7285172,220.801551 C61.4787931,201.914292 62.860069,115.372112 62.860069,115.372112 Z" id="Path_23" fill="#113C7A"></path>
                    <path d="M62.8855172,118.496629 C61.8647586,123.604584 47.3337931,126.157146 38.827,124.796629 C30.3202069,123.436112 21.1715517,119.258292 21.4741034,109.38782 C21.4741034,109.38782 20.1833103,69.9526517 20.1833103,62.1944494 C20.322041,57.2880676 22.0297789,52.5558265 25.0552414,48.6940449 C25.0552414,48.6940449 29.8168966,43.2448989 44.7776552,46.3099551 C44.7776552,46.3099551 56.9673793,48.9686966 62.5773103,57.9925618 C62.5773103,57.9925618 66.4511034,67.9026742 65.1603103,88.593573 C63.8695172,109.284472 62.8855172,118.496629 62.8855172,118.496629 Z" id="Path_24" fill="url(#linearGradient-9)"></path>
                    <path d="M33.0954828,35.3578652 C33.0954828,35.3578652 34.3862759,42.9008764 33.0954828,46.3481798 C32.8791724,48.0725393 40.4118621,53.891191 47.0835517,52.3820225 C50.955931,51.5198427 50.7410345,49.5802921 50.7410345,49.5802921 C50.7410345,49.5802921 47.5133448,44.2005169 47.9445517,39.0217753 C48.3757586,33.8430337 37.6068966,34.2804944 33.0954828,35.3578652 Z" id="Path_25" fill="#FF7C40"></path>
                    <g id="Group_19" transform="translate(22.620690, 2.309347)" fill="#FF9D6F">
                        <path d="M35.6530345,17.8563156 C35.6530345,27.6752434 27.7041127,35.6350571 17.8986207,35.6350571 C8.09312871,35.6350571 0.144206897,27.6752434 0.144206897,17.8563156 C0.144206897,8.03738772 8.09312871,0.07757399 17.8986207,0.07757399 C27.7037893,0.0783557571 35.6522538,8.03771156 35.6530345,17.8563156 L35.6530345,17.8563156 Z" id="Path_26"></path>
                        <path d="M35.6530345,19.0412819 C35.6530345,19.0412819 35.867931,36.8497538 31.9941379,40.4442931 C28.1203448,44.0388324 22.173931,37.0791021 12.6661724,34.8479111 C3.157,32.4029448 20.3741724,13.885192 20.3741724,13.885192 L35.6530345,19.0412819 Z" id="Path_27"></path>
                    </g>
                    <g id="Group_20" transform="translate(50.552324, 53.454363)">
                        <path d="M6.28215892,0.3801989 C6.28215892,0.3801989 10.1715037,-0.732565145 14.6150555,5.66512025 C19.0586072,12.0628056 25.448952,20.4071202 28.5041589,21.8044461 C31.5593658,23.2017719 35.7258141,20.4127832 37.3926762,20.4127832 C39.0595382,20.4127832 43.5045037,28.1993 41.8376417,32.0953899 C40.1707796,35.9914798 29.3368831,37.9366933 26.5601934,37.9366933 C23.7835037,37.9366933 5.72653823,27.0893674 3.2326072,20.9691652 C0.738676162,14.8489629 -3.15773763,0.659097777 6.28215892,0.3801989 Z" id="Path_28" fill="url(#linearGradient-10)"></path>
                        <path d="M34.8973313,21.2424011 C35.7834357,19.2590891 37.7274647,17.9609269 39.8965037,17.904109 C43.7858486,17.6209629 48.2308141,25.1356596 47.9551244,29.3078169 C47.6794348,33.4799742 41.5661934,35.7055023 40.1792624,34.5927382 C38.7923313,33.4799742 41.5633658,30.6994798 34.8973313,21.2424011 Z" id="Path_29" fill="url(#linearGradient-11)"></path>
                    </g>
                    <path d="M51.1453793,5.15892135 C51.1453793,5.15892135 57.5328966,6.54916854 59.4782759,16.2837303 C58.6441379,20.4573034 52.8108276,17.1190112 50.5897586,22.6814157 C49.7114366,25.2421933 48.4966931,27.6745333 46.9775172,29.914382 L45.5891724,29.358 C45.5891724,29.358 45.5891724,24.9069438 43.6452069,24.9069438 C41.7012414,24.9069438 41.1456207,30.1918652 42.2554483,32.4173933 C43.0909523,33.8729965 44.3515462,35.037494 45.8676897,35.7542697 C45.8676897,35.7542697 43.0895862,40.4842247 41.6998276,41.039191 C40.310069,41.5941573 35.3123103,40.4842247 33.366931,39.6489438 C31.4215517,38.8136629 27.8121379,34.9204045 25.0340345,30.470764 C22.255931,26.0211236 19.7563448,18.2317753 21.4232069,12.9468539 C22.18942,10.0043242 24.225892,7.5571054 26.978,6.27168539 C28.5733503,4.25925468 30.6863783,2.72040136 33.0898276,1.82062921 C39.2861773,-0.175278528 46.0693434,1.07886149 51.1453793,5.15892135 Z" id="Path_30" fill="#843837"></path>
                    <path d="M54.2005862,50.0333258 L49.5704138,47.4368764 C49.5704138,47.4368764 37.7185862,46.3241124 33.4602414,43.543618 L31.2377586,46.6964494 C33.503973,50.4388799 37.4348917,52.8557058 41.7931379,53.1861573 C49.3852069,53.928 52.9041379,50.9606292 52.9041379,50.9606292 L54.2005862,50.0333258 Z" id="Path_31" fill="#CFDAE4"></path>
                </g>
                <g id="Group_26" opacity="0.67" transform="translate(423.000000, 97.000000)" fill="#1AE5FF">
                    <g id="Group_22" transform="translate(0.340798, 0.000000)">
                        <path d="M32.716782,18.4752831 L32.7011646,23.7136026 C32.6966754,25.1462466 31.9316544,26.4678324 30.6938995,27.1811845 C29.4561446,27.8945367 27.9334059,27.8914498 26.6985316,27.173085 L2.08405063,12.8370811 C0.850426608,12.1160668 0.0937965061,10.789139 0.0992113257,9.35625264 L0.114835443,4.11793315 C0.118449695,2.68491521 0.88331986,1.36265615 2.12139567,0.649119022 C3.35947149,-0.0644181112 4.88271346,-0.0608609974 6.11746835,0.658450753 L30.7319494,14.9930316 C31.9651542,15.7151558 32.721541,17.042199 32.716782,18.4752831 Z" id="Path_32"></path>
                    </g>
                    <g id="Group_23" transform="translate(0.340798, 25.962053)">
                        <path d="M110.5823,63.6738298 L110.568101,68.9235338 C110.563672,70.3547376 109.800221,71.6752542 108.564452,72.3891838 C107.328683,73.1031135 105.807651,73.1023901 104.572557,72.3872854 L2.01741772,12.9499341 C0.777017571,12.2317748 0.0143871555,10.9021809 0.0184143823,9.46483644 L0.0340253165,4.21513239 C0.0375828764,2.78355632 0.800882295,1.46236928 2.03697062,0.748255146 C3.27305895,0.0341410119 4.79459251,0.0353321593 6.02956962,0.751380791 L108.583291,60.1844629 C109.824366,60.9040304 110.586964,62.235197 110.5823,63.6738298 L110.5823,63.6738298 Z" id="Path_33"></path>
                    </g>
                    <g id="Group_24" opacity="0.53" transform="translate(0.000000, 78.268832)">
                        <path d="M68.4935283,39.0215632 L68.4793301,44.2712672 C68.4757725,45.7028433 67.7124731,47.0240303 66.4763848,47.7381445 C65.2402965,48.4522586 63.7187629,48.4510675 62.4837858,47.7350188 L2.21077313,12.8057735 C0.970794555,12.086497 0.20841127,10.7567911 0.211774628,9.31925282 L0.227380721,4.06954878 C0.23093828,2.63797271 0.9942377,1.31678566 2.23032603,0.60267153 C3.46641436,-0.111442604 4.98794791,-0.110251457 6.22292502,0.605797175 L66.4959377,35.5364655 C67.7360079,36.2547711 68.4981371,37.5844343 68.4935283,39.0215632 L68.4935283,39.0215632 Z" id="Path_34"></path>
                    </g>
                    <g id="Group_25" transform="translate(0.000000, 51.577307)">
                        <path d="M94.9467885,54.9219512 L94.9325959,60.1716553 C94.9281663,61.6028591 94.164716,62.9233757 92.9289469,63.6373053 C91.6931779,64.351235 90.1721461,64.3505116 88.9370516,63.6354069 L2.28449464,13.418124 C1.04451607,12.6988474 0.282132789,11.3691416 0.285496147,9.9316033 L0.30110224,4.68189925 C0.304659799,3.25032318 1.06795922,1.92913614 2.30404755,1.215022 C3.54013588,0.500907867 5.06166943,0.502099014 6.29664654,1.21814765 L92.9477858,51.4354305 C94.1881951,52.1542754 94.9507359,53.4842559 94.9467885,54.9219512 Z" id="Path_35"></path>
                    </g>
                </g>
                <g id="Group_31" opacity="0.67" transform="translate(4.000000, 70.000000)" fill="#1AE5FF">
                    <g id="Group_27" transform="translate(39.666341, 0.000000)">
                        <path d="M0.19847885,9.4446691 L0.206945741,12.0999125 C0.208959146,12.8260242 0.600435826,13.4959322 1.2339569,13.8573685 C1.86747797,14.2188048 2.64683278,14.2168793 3.27853869,13.852317 L15.8765827,6.58754873 C16.5090773,6.22254073 16.8973252,5.54953882 16.894818,4.82252687 L16.8877544,2.1672835 C16.885741,1.4411718 16.4942644,0.771263726 15.8607433,0.409827421 C15.2272222,0.0483911157 14.4478674,0.0503166605 13.8161615,0.41487895 L1.21811752,7.67964724 C0.585507692,8.04472227 0.196838813,8.71752195 0.19847885,9.4446691 L0.19847885,9.4446691 Z" id="Path_36"></path>
                    </g>
                    <g id="Group_28" transform="translate(0.000000, 12.956488)">
                        <path d="M0.0201425306,32.5554707 L0.0286060788,35.2191256 C0.0301956047,35.9448692 0.420888563,36.6147208 1.05369199,36.9766576 C1.68649542,37.3385945 2.46540956,37.3377089 3.09737846,36.974334 L55.5838223,6.85120082 C56.218383,6.48701239 56.6084288,5.81315703 56.6062852,5.08477703 L56.5992249,2.42112212 C56.5976354,1.69537853 56.2069424,1.02552698 55.574139,0.663590103 C54.9413356,0.301653228 54.1624214,0.302538836 53.5304525,0.665913728 L1.04400871,30.7890469 C0.409547204,31.153516 0.0191593789,31.8270333 0.0201425306,32.5554707 L0.0201425306,32.5554707 Z" id="Path_37"></path>
                    </g>
                    <g id="Group_29" opacity="0.53" transform="translate(21.672195, 39.593037)">
                        <path d="M0.0634544416,19.936756 L0.0705140713,22.600411 C0.072971562,23.3257876 0.463814649,23.9949782 1.09630018,24.3567332 C1.72878572,24.7184883 2.50720049,24.7180639 3.13928645,24.3556194 L33.9877824,6.64792189 C34.6225578,6.28394659 35.0126821,5.60995549 35.0102478,4.88149811 L35.0102478,2.21784319 C35.0086469,1.4920996 34.6179539,0.822248051 33.9851505,0.460311176 C33.3523471,0.0983743007 32.5734329,0.0992599082 31.941464,0.4626348 L1.0859167,18.1689303 C0.451346707,18.5337937 0.0613898455,19.2080301 0.0634544416,19.936756 L0.0634544416,19.936756 Z" id="Path_38"></path>
                    </g>
                    <g id="Group_30" transform="translate(7.569381, 26.464212)">
                        <path d="M0.627568606,27.5952754 L0.636036923,30.2589303 C0.637915892,30.9842399 1.02841541,31.6536061 1.6607687,32.0154518 C2.29312199,32.3772975 3.07151705,32.3767971 3.70339902,32.0141387 L48.052519,6.5622151 C48.687089,6.19735173 49.0770459,5.52311529 49.0749813,4.79438939 L49.0665114,2.13073448 C49.0646324,1.40542487 48.6741329,0.736058699 48.0417796,0.374212994 C47.4094263,0.0123672895 46.6310312,0.0128676756 45.9991493,0.375526086 L1.65143955,25.8288516 C1.01633594,26.1926828 0.625713046,26.8666057 0.627568606,27.5952754 Z" id="Path_39"></path>
                    </g>
                </g>
                <g id="Group_32" transform="translate(235.000000, 173.500000) scale(-1, 1) translate(-235.000000, -173.500000) translate(213.000000, 152.000000)">
                    <path d="M43.188129,21.4986476 C43.188129,33.2770107 33.6561269,42.8252605 21.8978065,42.8252605 C10.139486,42.8252605 0.607483871,33.2770107 0.607483871,21.4986476 C0.607483871,9.72028451 10.139486,0.172034677 21.8978065,0.172034677 C33.6561269,0.172034677 43.188129,9.72028451 43.188129,21.4986476 Z" id="Path_40" fill="url(#linearGradient-12)"></path>
                    <polygon id="Path_41" fill="#FFFFFF" points="20.0625806 31.3088895 11.176 24.7985855 14.4092903 20.3697589 19.0193548 23.743629 28.3629677 11.8078347 32.672129 15.1945008"></polygon>
                </g>
                <g id="Group_33" opacity="0.46" transform="translate(116.000000, 30.000000)" fill="#1AE5FF">
                    <path d="M91.802073,48.905237 C97.1436876,52.365876 100.502899,58.1616289 100.840903,64.5002135 C100.82392,70.2633904 96.7467529,72.5782477 91.742635,69.7008886 L9.30913127,22.2886076 C3.95844073,18.8201232 0.598131739,13.009374 0.270301622,6.6583867 C0.287283923,0.930454207 4.36445133,-1.38440308 9.36856932,1.49436585 L91.802073,48.905237 Z" id="Path_42"></path>
                </g>
                <g id="Group_34" opacity="0.46" transform="translate(457.000000, 298.000000)" fill="#1AE5FF">
                    <path d="M63.5806858,34.058156 C67.2831116,36.4782522 69.6112854,40.5316551 69.8450409,44.964539 C69.8337512,48.9943262 67.0071003,50.6141844 63.5397608,48.6014184 L6.40415749,15.4453901 C2.69682702,13.0187363 0.368310152,8.95577292 0.139802436,4.51489362 C0.151092105,0.507801418 2.97774297,-1.1106383 6.44508254,0.90212766 L63.5806858,34.058156 Z" id="Path_43"></path>
                </g>
                <g id="Group_35" transform="translate(1.000000, 246.000000)" fill="url(#linearGradient-13)">
                    <path d="M124.946596,26.5152298 C127.087045,27.7443656 127.087045,29.7322974 124.970854,30.9585912 L53.9864157,72.0429878 C51.5662719,73.2725584 48.7009416,73.2725584 46.2807978,72.0429878 L2.50147191,46.873413 C0.368157303,45.6471191 0.352460674,43.6591874 2.47578652,42.4300516 L73.4616517,1.35133888 C75.8821314,0.123160675 78.7467899,0.123160675 81.1672697,1.35133888 L124.946596,26.5152298 Z" id="Path_44"></path>
                </g>
                <g id="Group_42" transform="translate(38.000000, 178.000000)">
                    <g id="Group_36" opacity="0.21" style="mix-blend-mode: multiply;" transform="translate(25.087313, 181.759223)" fill="url(#linearGradient-14)">
                        <ellipse id="Ellipse_2" transform="translate(52.011784, 30.338843) rotate(-0.171887) translate(-52.011784, -30.338843) " cx="52.0117843" cy="30.3388432" rx="51.5862127" ry="30.0273327"></ellipse>
                    </g>
                    <g id="Group_41">
                        <path d="M65.2981522,217.61407 C65.2981522,217.61407 56.0059783,220.049359 52.3702174,220.049359 C48.7344565,220.049359 52.3702174,223.704424 58.4293478,224.110542 C64.4884783,224.51666 70.1463043,224.921359 71.3586957,223.298306 C72.571087,221.675253 71.0888043,217.073052 71.0888043,217.073052 L65.2981522,217.61407 Z" id="Path_45" fill="#5155D4"></path>
                        <path d="M91.1540217,209.088426 C91.1540217,209.088426 81.8618478,211.523716 78.226087,211.523716 C74.5903261,211.523716 78.226087,215.17736 84.2866304,215.583479 C90.3471739,215.989597 96.0021739,216.395715 97.2145652,214.771242 C98.4269565,213.146769 96.9446739,208.547409 96.9446739,208.547409 L91.1540217,209.088426 Z" id="Path_46" fill="#5155D4"></path>
                        <path d="M93.1746739,108.267437 C93.1746739,108.267437 96.5405435,201.1038 97.078913,210.847799 C95.3818931,212.12179 93.1885833,212.522344 91.1540217,211.929834 C91.1540217,211.929834 80.2467391,151.031974 78.6302174,135.333942 C77.0136957,119.635909 74.3204348,114.221472 74.3204348,114.221472 L93.1746739,108.267437 Z" id="Path_47" fill="#343996"></path>
                        <path d="M58.6992391,113.680454 C58.6992391,113.680454 55.4676087,167.271025 65.163913,219.238543 C65.163913,219.238543 68.3955435,220.861596 71.0888043,217.073052 C71.0888043,217.073052 77.0136957,126.130961 78.6302174,113.139436 C80.2467391,100.147912 63.0090217,110.973946 58.6992391,113.680454 Z" id="Path_48" fill="#343996"></path>
                        <path d="M73.2436957,154.820518 C73.2436957,154.820518 78.6302174,139.663503 83.4783696,131.543978 C88.3265217,123.424452 87.2483696,111.522063 87.2483696,111.522063 L68.933913,113.146536 L73.2436957,154.820518 Z" id="Path_49" fill="#343996"></path>
                        <path d="M54.5915217,60.7033205 L38.5845652,52.9047139 C38.5845652,52.9047139 33.733587,48.0298747 32.5211957,47.0543389 C31.3088043,46.0788031 23.3053261,44.1305714 21.8498913,44.3733903 C20.3944565,44.6162093 17.7266304,46.8115199 18.458587,47.2985778 C19.1905435,47.7856358 25.9773913,51.4421201 26.2190217,52.9047139 C26.4606522,54.3673076 23.7942391,56.3126993 24.765,57.2910751 C25.7357609,58.269451 27.9175,56.3169593 29.3729348,56.3169593 C31.3057494,56.7302542 33.1794312,57.3852374 34.9502174,58.266611 L50.4725,67.2835724 L54.5915217,60.7033205 Z" id="Path_50" fill="#FF9D6F"></path>
                        <g id="Group_37" transform="translate(43.281715, 44.019812)" fill="#FF3D9D">
                            <path d="M45.4489369,1.04937551 C45.4489369,1.04937551 42.4815456,-2.1995706 37.6376325,4.03136277 C32.7937195,10.2622961 28.749589,19.4595968 22.0164369,18.6473603 C15.2832847,17.8351238 4.24034991,12.4221069 4.24034991,12.4221069 C4.24034991,12.4221069 -0.607802263,15.669633 0.200458606,20.5416322 C0.200458606,20.5416322 15.8216543,32.1855824 26.3248064,31.6388848 C36.8279586,31.0921871 48.1421977,20.2718334 50.5655673,12.6933257 C52.9889369,5.11481814 45.4489369,1.04937551 45.4489369,1.04937551 Z" id="Path_51"></path>
                        </g>
                        <path d="M56.3380435,113.565435 C57.3031522,118.418974 71.0676087,120.844323 79.1163043,119.550709 C87.165,118.257095 95.8326087,114.289632 95.5457609,104.910572 C95.5457609,104.910572 96.7680435,67.4397718 96.7680435,60.0685833 C96.6364824,55.4064294 95.0193026,50.9098097 92.1544565,47.2403581 C92.1544565,47.2403581 87.6468478,42.0644802 73.481087,44.9768878 C73.481087,44.9768878 61.9407609,47.503057 56.6291304,56.0755603 C56.6291304,56.0755603 52.9552174,65.4943801 54.1831522,85.1513561 C55.411087,104.808332 56.3380435,113.565435 56.3380435,113.565435 Z" id="Path_52" fill="#FF3D9D"></path>
                        <path d="M84.5438043,34.5768522 C84.5438043,34.5768522 83.3201087,41.7435616 84.5438043,45.0194876 C84.7472826,46.6581606 77.6198913,52.186197 71.2993478,50.7534231 C67.6254348,49.9340866 67.8345652,48.0909345 67.8345652,48.0909345 C67.8345652,48.0909345 70.8923913,42.9718563 70.4840217,38.0572573 C70.0756522,33.1426583 80.2608696,33.5530366 84.5438043,34.5768522 Z" id="Path_53" fill="#FF7C40"></path>
                        <g id="Group_38" transform="translate(60.413400, 2.839988)" fill="#FF9D6F">
                            <path d="M0.290947969,17.3012061 C0.290947969,26.6336739 7.81937723,34.1991338 17.1061654,34.1991338 C26.3929535,34.1991338 33.9213828,26.6336739 33.9213828,17.3012061 C33.9213828,7.96873824 26.3929535,0.403278276 17.1061654,0.403278276 C7.81937723,0.403278276 0.290947969,7.96873824 0.290947969,17.3012061 L0.290947969,17.3012061 Z" id="Path_54"></path>
                            <path d="M0.290947969,18.4272612 C0.290947969,18.4272612 0.0860566643,35.3493289 3.75431753,38.7644143 C7.4225784,42.1794997 13.0521436,35.566588 22.0546436,33.446537 C31.0571436,31.122007 14.7576871,13.5282822 14.7576871,13.5282822 L0.290947969,18.4272612 Z" id="Path_55"></path>
                        </g>
                        <g id="Group_39" transform="translate(0.000000, 50.774208)">
                            <path d="M39.9029348,25.8600247 C39.9029348,25.8600247 16.3658696,15.3265097 13.196413,13.5373174 C10.0269565,11.748125 7.65869565,5.19059304 6.47173913,3.79899898 C5.28478261,2.40740493 -0.0551086957,-0.773381473 0.142717391,0.618212579 C0.340543478,2.00980663 3.1101087,4.59419559 3.1101087,4.59419559 C2.07849914,6.33591003 1.28074335,8.20713281 0.737608696,10.1591518 C0.341956522,12.3445225 3.30793478,16.7181038 4.89054348,17.9094787 C6.54889491,18.7878763 8.36360678,19.3283565 10.2304348,19.4998719 C10.2304348,19.4998719 29.4153261,32.4218166 32.5805435,32.6177758 C35.7457609,32.813735 40.298587,31.0273826 39.9029348,25.8600247 Z" id="Path_56" fill="#FF9D6F"></path>
                            <path d="M60.8541304,4.44367623 C60.8541304,4.44367623 57.8867391,1.19615011 53.0428261,7.42566348 C48.198913,13.6551769 44.1547826,22.8524775 37.4216304,22.041661 C30.6884783,21.2308445 19.6455435,15.8164076 19.6455435,15.8164076 C19.6455435,15.8164076 14.7973913,19.0639337 15.6056522,23.9359329 C15.6056522,23.9359329 31.2268478,35.5798831 41.731413,35.0331855 C52.2359783,34.4864878 63.5473913,23.6647141 65.9707609,16.0862065 C68.3941304,8.50769886 60.8541304,4.44367623 60.8541304,4.44367623 Z" id="Path_57" fill="#FF3D9D"></path>
                        </g>
                        <g id="Group_40" transform="translate(59.347826, 0.000000)" fill="#843837">
                            <path d="M8.10521739,5.88161486 C8.10521739,5.88161486 2.05597826,7.20362921 0.216195652,16.4534697 C1.00467391,20.4180927 6.52826087,17.2458263 8.63086957,22.5324637 C9.46254882,24.9651298 10.6124851,27.2758374 12.0504348,29.4038143 L13.3659783,28.8755766 C13.3659783,28.8755766 13.3659783,24.6468347 15.2029348,24.6468347 C17.0398913,24.6468347 17.5711957,29.6679332 16.5184783,31.7823042 C15.7279777,33.1651727 14.5351452,34.271703 13.1003261,34.9531506 C13.1003261,34.9531506 15.73,39.4474314 17.0441304,39.9756691 C18.3582609,40.5039069 23.0933696,39.4474314 24.9345652,38.6536548 C26.7757609,37.8598782 30.193913,34.160794 32.825,29.9320521 C35.456087,25.7033101 37.8215217,18.3037218 36.2431522,13.2826232 C35.5184122,10.4862143 33.590056,8.1604922 30.9838043,6.93951034 C29.4715521,5.02640061 27.4684311,3.56429419 25.1903261,2.71076841 C19.3268781,0.815783423 12.9083365,2.00700848 8.10521739,5.88161486 Z" id="Path_58"></path>
                            <path d="M6.75858696,17.0555471 C9.2392583,20.4413231 9.98746931,24.8037659 8.77782609,28.8287168 C6.75858696,35.7313073 9.58608696,35.7313073 12.413587,44.6630691 C15.241087,53.5948309 7.16271739,64.1496458 14.8383696,77.1411703 C22.5140217,90.1326948 43.1190217,88.5096417 52.4097826,75.5181172 C61.7005435,62.5265928 47.158913,53.1887127 46.7576087,41.414123 C46.3563043,29.6395333 55.6456522,22.7397828 45.141087,14.6188375 C34.6365217,6.49789223 30.1925,-2.4324496 17.2645652,1.22119478 C4.33663043,4.87483916 1.10217391,11.3713114 6.75858696,17.0555471 Z" id="Path_59"></path>
                        </g>
                    </g>
                </g>
            </g>
        </g>
    </g>
</svg>
